<svg width="112" height="118" viewBox="0 0 112 118" xmlns="http://www.w3.org/2000/svg">
    <defs>
        <linearGradient x1="79.771%" y1="40.147%" x2="20.23%" y2="59.855%" id="a">
            <stop stop-color="#FFF" offset="0%"/>
            <stop stop-color="#FFF" offset="100%"/>
        </linearGradient>
        <linearGradient x1="80.303%" y1="65.35%" x2="19.695%" y2="34.651%" id="b">
            <stop stop-color="#FFF" offset="0%"/>
            <stop stop-color="#FFF" offset="100%"/>
        </linearGradient>
    </defs>
    <g fill="none" fill-rule="evenodd">
        <path d="M55.862 78.535c1.395.01 2.779.037 4.147.082l2.834 12.336-2.99.98-12.44-2.135 11.331 2.498-30.474 9.98-1.287-7.13 28.879-16.61zm5.93.152c9.899.447 18.975 1.845 26.506 3.93L63.94 90.593l-2.148-11.907zm33.454 6.216c4.848 1.894 8.679 4.129 11.182 6.594L84.14 96.099l-18.155-3.115 29.261-8.081zm13.402 9.427c1.085 1.929 1.404 3.987.759 6.103l-9.49-1.628.933-.268-1.049.249-8.384-1.439 17.23-3.017zm-.613 8.83c-7.968 11.22-41.017 17.517-71.194 13.743l29.986-8.604 1.437 6.256-1.144-6.34 27.74-7.959 13.175 2.904zm-79.33 12.45c-5.745-1.122-10.867-2.604-15.138-4.359l.205-.304 15.116-2.648 1.583 6.893-1.767.418zm-18.091-5.683a39.598 39.598 0 0 1-2.059-1.08l3.612-.998c-.53.71-1.05 1.403-1.553 2.078zm-2.183-1.152a30.411 30.411 0 0 1-2.452-1.547l11.701-6.73c-1.823 2.425-3.58 4.767-5.218 6.957l-4.03 1.32zm-6.48-5.286C.68 101.824 0 100.072 0 98.262c0-6.607 9.033-12.456 22.9-16.037l1.996 8.692-1.027 1.361c-8.25 4.198-15.885 8.1-21.919 11.211zm22.626-21.68a109.045 109.045 0 0 1 8.446-1.65c-2.265 2.994-4.653 6.154-7.058 9.34l-1.388-7.69zm10.203-1.914c5.04-.713 10.446-1.165 16.087-1.312-7.609 3.85-15.56 7.88-23.136 11.731l7.049-10.419zm59.422 20.216-8.22-1.812-20.019 3.507.863 4.783 27.376-6.478zm-27.747 6.566-1.095-4.766-36.017 6.309 1.253 6.943 35.859-8.486zm-37.74.867-.922-4.011-11.074 3.058-2.697 3.987 14.693-3.034zm-1.157-5.034-1.56-6.797-3.142 1.807-5.676 8.39 10.378-3.4zm.906.838.739 4.095 35.733-7.379-1.467-6.385-35.005 9.669zm36.011-9.789 1.149 6.363 14.314-2.955-15.463-3.408z" fill="#E4E6EA"/>
        <path d="M20.63 46.693c-4.121-3.5-8.249-7.035-10.91-11.825-.34-.612-1.239-.88-1.84-.482a11.579 11.579 0 0 0-2.36 2.071c-.432.381-.582.44-.777.758-1.26 1.381-1.8 2.758-1.962 3.093-.042.106-.09.209-.133.315-.343.85.378 1.528 1.146 1.631a21.76 21.76 0 0 0 4.424 4.957c-.03.363.093.725.44.996 1.899 1.484 3.57 3.205 4.942 5.187.543.785 1.89.996 2.383 0 1.616-3.262 4.034-2.542 4.551-4.42.063-.227.08-.438.063-.635.473-.413.648-1.122.032-1.646zM75.319 109.938c-1.09-1.67-2.183-3.339-3.278-5.006.076-.172.13-.354.148-.543.14-.372.129-.807-.131-1.254-1.228-2.113-.721-1.11-5.647-11.929a107.29 107.29 0 0 1-1.495-5.869c-.223-.998-1.354-1.265-2.172-.881a8.64 8.64 0 0 1-2.067.662c-2.86.148-2.7.135-2.88.169a3391.23 3391.23 0 0 1-5.182-4.137c-2.216-2.264-4.442-4.558-6.898-6.563-1.404-1.84-2.774-3.7-4.13-5.548-.801-1.095-2.47-.733-2.556.69a16.443 16.443 0 0 1-1.518 5.914c-.182.392-.141.886.06 1.27.003.329.121.664.394.954 6.207 6.595 12.263 13.484 17.258 18.116-.083.42.028.883.44 1.288a141.819 141.819 0 0 0 5.992 5.562c.046.208.14.416.294.613 1.904 2.417 3.746 4.882 5.647 7.302 2.406 3.062 4.26.983 6.061 1.344 1.18.237 2.414-.995 1.66-2.154zM110.97 99.168c-.97-6.252-2.642-12.233-4.846-17.901-.11-.495-.222-.99-.337-1.483.04-.417-.265-2.424-1.078-4.39l-.001-.006c-.154-.369-.33-.94-1.003-1.081-.166-.593-.33-1.187-.502-1.779-.215-.736-1-1.214-1.756-.995-2.158.627-4.38 1.156-6.49 1.93-1.64.601-2.73 2.25-1.794 3.907.173.307.439.488.73.567.142 6.267 2.07 12.243 4.415 18.02a56.8 56.8 0 0 0 2.721 9.466c.412 1.072 1.597 1.433 2.49.656.13-.113.263-.22.397-.323.47.075 1.517-.165 2.085-.337.962-.2 2.03-.686 2.743-1.432 3.35-.523 2.454-3.355 2.227-4.819zM86.224 19.827c-.706-.581-1.534-.841-2.398-.954.786-5.763-2.802-11.539-8.83-12.719-.88-.172-1.799.389-1.785 1.357.058 4.228-.92 8.057-2.76 11.766-.903.05-2.628-.149-4.063-.308.633-4.374 1.273-8.746 1.91-13.12.137-.94.392-1.883.047-2.802-.394-1.054-1.405-1.41-2.412-1.66-2.38-.594-4.882-.77-7.325-.62-1.823.112-4.648.293-6.061 1.61-1.542 1.437-1.361 3.933-1.491 5.872-.235 3.513-.172 7.082.491 10.542-1.052.85-2.215.756-3.066.88-1.316-3.667-2.574-7.544-2.019-11.463.18-1.26-.91-2.26-2.14-1.642-1.999 1.003-4.02 2.086-5.589 3.633-.512-.026-1.018.19-1.293.75-1.344 2.743-1.573 5.804-.613 8.616-2.7.389-3.77 3.008-3.356 4.14-.468.633-.465 1.576.01 2.143-.767.944-.996 2.138-.906 3.372.097 1.329.369 2.825 1.918 2.957.456.04.868-.263 1.075-.66.619-.447.418-.736 1.524-5.336 15.295-.928 30.62-1.808 45.929-.716-.296.328-.449.807-.3 1.228.427 1.209.63 2.5.917 3.716.172.637.885.93 1.48.787.97.448 2.089-.274 1.87-1.558-.156-.918-.402-1.866-.84-2.7a3.63 3.63 0 0 0 .605-2.404c1.358-1.436.78-3.63-.529-4.707zM43.787 49.152a11.8 11.8 0 0 1-2.77-2.407c-.883-1.045-1.301-2.308-1.944-3.487-1.266-2.321-3.959-.98-5.424.246-.53.443-.2 1.293.388 1.469 3.388 1.013 6.003 3.573 7.165 6.895.012.035.027.07.043.102-.02.173-.031.35-.03.532.006.84 1.223.816 1.289 0 .003-.041.01-.08.016-.12.119-.078.058-.026 1.121-1.117a.872.872 0 0 0 .203-.884.743.743 0 0 0-.057-1.229z" fill="#444955" fill-rule="nonzero"/>
        <path d="M40.78 53.99c.237-.924.086-1.832-.304-2.687.1-.314.038-.672-.29-.971l-.934-.85a12.284 12.284 0 0 0-1.533-1.44 11.84 11.84 0 0 0-.564-.55c-.431-.46-.93-.849-1.505-1.168a5.52 5.52 0 0 0-.47-.417c-.386-.395-.815-.64-1.35-.804a.817.817 0 0 0-.56.029C30.79 43.7 27.886 42.872 25 42.558c-.351-.038-.604.083-.767.28-.49.216-.767.576-.891 1.002-.476.364-.676.952-.446 1.846.054.212.19.371.36.476-1.504 1.13-5.299 4.745-8.292 8.711-2.632 3.488-4.538 7.32-5.182 8.947a.833.833 0 0 0-.014.636c-1.3 2.587-2.028 5.412-2.403 8.294-.278 2.143-1.014 5.502.368 7.477.03.24.11.386.338.792-.079.41.17.66.322.855.253.26 2.537 3.578 7.136 4.379.096.204.28.38.565.478 4.8 1.644 10.677 2.035 14.22-2.137.223-.132.264-.217.673-.757a.945.945 0 0 0 .376-.227 19.63 19.63 0 0 0 3.177-4.075c.305-.205.376-.46.508-.803a9.502 9.502 0 0 0 2.024-4.04l.313-.576c.098-.098.18-.213.234-.343a31.513 31.513 0 0 0 2.37-13.45c.134-.11.244-.257.31-.44.694-1.959.83-3.98.48-5.892z" fill="#EE3232" fill-rule="nonzero"/>
        <path d="M56.154 98.527c-.726-1.85-2.654-3.08-4.023-4.506a45.363 45.363 0 0 1-1.447-1.59 34.203 34.203 0 0 0-3.27-4.147.878.878 0 0 0-.71-.29 4.717 4.717 0 0 0-1.09-.847c-.117-.174-.35-.586-.869-.587-.136-.359-.477-.654-.884-.655-3.1-.008-4.898.697-5.97.867a19.91 19.91 0 0 0-7 .96c-.39-.12-4.13-.07-8.025 1.407-.827.126-1.654.254-2.482.376a.767.767 0 0 0-.553.346c-2.75-.06-6.467 2.064-8.612 3.916a7.707 7.707 0 0 0-3.023 2.861c-1.242.38-1.382 1.752-1.26 2.907-.259.55-.124 4.753 3.494 7.534-.072.282.004.59.323.854a14.75 14.75 0 0 0 4.298 2.48c.158.06.305.07.441.052 2.296.934 4.698 1.474 7.143 1.727a.76.76 0 0 0 .497.28c2.397.401 4.79.513 7.159.38.126.367.437.65.92.608 5.41-.482 10.883-1.822 15.337-4.922.292-.172.58-.352.863-.542.259.166.607.217.961.066 2.42-1.034 4.368-2.947 5.498-5.277.064-.055.13-.108.19-.165a.965.965 0 0 0 .532-.255c.806-.781 1.434-1.615 1.358-2.736.025-.078.053-.154.075-.233.191-.208.271-.506.129-.869zM65.862 1.517c-1.335-.546-2.91-.635-4.348-.72-2.662-.156-6.042-.184-8.453 1.118-1.767.954-2.202 3.243-2.38 5.239l.031-.562c.028-.497-.748-.728-.964-.26-.01.019-.016.039-.024.059a.458.458 0 0 0-.353.055c-.453.275-.443.266-.494.313-.689.324-1.593.42-1.996 1.104-.63 1.067-.331 2.27-.19 3.44.274 2.254.671 4.47 1.441 6.596-.046.165.01.288.028.34-.098.38 0 .7.211.947.012.027.025.053.039.079-.032.299.114.556.397.763.383.28 1.115.055 1.507-.076.542-.18.96-.646 1.064-1.143.208.19.674.06.645-.28-.485-5.696-1.117-11.82.702-14.86.721-1.205 2.39-1.408 3.646-1.569 1.239-.16 2.49-.208 3.738-.21 2.18-.005 5.553-.108 6.919 1.928.207.309.627.387.906.116 1.648-1.6-1.441-3.074-2.072-2.417zm-15.42 9.244c.05-.122.041-.151.075-.748-.03 1.948.138 3.899.38 5.836-.234-1.607-.368-3.475-.455-5.088zM72.639 7.387c-.01-.331-.268-.492-.52-.484-.68-.934-1.73-.715-2.406-1.43-.338-.357-.88-.063-.908.376-.128 1.96-.272 3.912-.67 5.84-.368 1.773-1.193 3.458-1.362 5.273a5.043 5.043 0 0 0-.013.904c-.845 1.326 1.107 1.896 2.108 1.97 2.255.168 2.327-2.298 2.64-3.925.065-.342.127-.684.186-1.027a24.226 24.226 0 0 0 .945-7.497zM45.704 6.992c-6.097-.576-11.072 6.194-8.96 11.827.186.495.908.307.798-.219-.566-2.714-.194-5.403 1.59-7.606 1.652-2.04 4.057-2.767 6.572-2.917.708-.042.693-1.02 0-1.085z" fill="#666D7D" fill-rule="nonzero"/>
        <path d="M76.465 6.96c-.877-.44-1.682-.935-2.628-.438-.927.487-.962 2.26-1.09 3.111-.455 3.033-.495 6.16-1.73 9.019-.178.41.396.776.618.36 1.026-1.927 1.434-3.996 1.73-6.14.269-1.94.407-3.483.787-4.942.266-1.021 1.716-.05 2.111.151 5.305 2.706 6.732 5.12 7.05 10.738.042.72 1.16.727 1.127 0-.324-7.42-3.391-9.565-7.975-11.86z" fill="#666D7D" fill-rule="nonzero"/>
        <path d="M87.215 23.137a.566.566 0 0 0-.278-.306c-.293-1.98-1.715-3.2-3.18-3.37-3.612-.419-8.336 1.76-13.627.982-.53-.078-.777.698-.228.823 2.236.51 4.477.368 6.732.063 4.606-.622 6.9-1.486 8.43.003 1.039 1.01.908 2.745.693 4.036-.09.539-.077 1.335.596 1.52 1.866.512 1.184-2.965.862-3.751zM47.848 19.854c-1.846.01-3.67.09-5.516-.04-1.695-.12-3.592-.791-5.289-.562-1.406.19-2.334 1.104-3.12 2.228-.392.562-.624 1.23-.737 1.9-.032.186.07 2.054.3 2.046-.689.025-.706 1.069-.058 1.096-1.173 1.11-1.112 4.686 1.052 5.427.435.15.678-.495.304-.72-.741-.449-1.005-1.073-1.09-1.91-.08-.768-.127-2.098.927-2.233.485-.063.714-.85.128-.942a1.842 1.842 0 0 0-.402-.019c.264-.338.29-.847.107-1.365-.71-1.998.983-4.436 3.116-4.494 1.698-.045 3.512.49 5.221.589 1.711.098 3.472.082 5.165-.203.462-.078.34-.8-.108-.798z" fill="#666D7D" fill-rule="nonzero"/>
        <path d="M84.229 24.706c-15.144-2.134-34.341-2.305-48.375.718-.437.094-.344.838.107.785 13.143-1.537 26.986-3.41 47.967-.414.714.102 1.02-.988.3-1.09zM85.815 30.77c.937-.877.772-2.681.003-3.815-.23-.339-.866-.132-.701.295.35.905.954 2.958-.708 2.947-.629-.004-.717.879-.144 1.064.487.157.932.395 1.41.572.455.169.838-.502.475-.815a3.085 3.085 0 0 0-.335-.249zM37.896 42.185c-1.479-.386-3.316.476-4.244 1.611-.3.368.152.823.52.52.499-.41 1.022-.743 1.63-.967.655-.242 1.295-.189 1.97-.253.5-.047.661-.771.124-.911zM8.534 34.795c-.039.015-.074.033-.112.049-.113-.118-.291-.175-.46-.078-.838.483-4.859 3.786-3.145 4.788.795.465 1.99-.615 2.525-1.089.899-.795 1.506-1.9 1.818-3.045.094-.342-.252-.772-.626-.625zM71.83 107.918c-2.14-4.08-3.874-8.283-5.649-12.526-.174-.415-.845-.262-.698.192 1.431 4.399 3.453 8.683 5.552 12.798.269.526 1.07.061.795-.464z" fill="#666D7D" fill-rule="nonzero"/>
        <path d="M74.98 110.983c-.77.005-1.54.122-2.31.15-.886.033-1.756-.098-2.636-.115-27.433-29.6-27.15-29.62-32.427-34.823-.366-.36-.877.174-.555.555 4.745 5.62 4.522 5.059 32.837 35.68.338.364.822.071.891-.309 1.418.188 3.05.078 4.303-.376.399-.144.357-.766-.103-.762zM110.72 103.09c-1.294-10.57-3.855-21.286-8.307-31.006a.538.538 0 0 0-.109-.24c-.03-.064-.057-.129-.086-.193-.15-.32-.623-.192-.712.085-2.98.645-5.99 1.769-8.773 3.028-.318-.215-.763-.27-1.068-.046-.44.323-.758.697-.988 1.104-.27-.303-.712-.437-1.194-.168-.43.24-.864.472-1.3.7l-1.816.59c-.276-.029.35-.188-8.397 2.458 2.061-1.264 1.98-3.627.529-4.492 1.507-1.137 2.725-2.648 3.147-4.44.486.178 1.005.27 1.522.273a7.292 7.292 0 0 0 8.81-1.794 6.406 6.406 0 0 0 1.395-1.103c.591-.313 1.265-1.082 1.588-2.645.673-1.983.64-4.19-.333-6.477a13.01 13.01 0 0 0-3.454-5.492.976.976 0 0 0-.621-.264c-2.394-1.903-5.557-2.778-8.595-2.412-.334-.015-2.018.376-2.541.624-.494.06-.971.43-.961.96a2.33 2.33 0 0 0-.373.199c-.22-1.535-.944-2.946-2.72-2.904-.954.023-1.95.67-2.79 1.054-4.493 2.054-10.595 4.677-16.93 4.423-4.498-1.077-7.596-2.344-8.015-2.489a13.665 13.665 0 0 1-2.076-1.743c-.56-.576-1.513-.086-1.588.567-.344.15-.442.428-.645.833-1.85 1.923-2.414 4.563-1.813 6.926.137 1.394.748 2.638 1.653 3.535-.37.14-.682.461-.703.914-.064 1.397-.6 2.72-.706 4.118-.225 2.97 2.869 4.558 5.336 6.477.015.21.093.427.26.634a68.221 68.221 0 0 0 8.542 8.826c.486.546.974 1.092 1.458 1.64.513.581 1.543.241 1.71-.459 4.023-1.082 2.048-.654 5.245-.887a1.08 1.08 0 0 0-.034.404c-2.07.916-3.614 1.389-6.94 1.673-.47.04-.484.732 0 .74 2.388.041 5.045-.412 7.338-1.411a19.938 19.938 0 0 0 1.693 3.897 46.454 46.454 0 0 0 3.612 8.643c.433 1.079.885 2.15 1.362 3.208.04.186 1.315 3.74 3.658 7.577-.116.392.04.71.348 1.202l.834 1.52c.348.633 1.082.538 1.459.109.255.005.514-.048.773-.17.278-.025.539-.145.718-.332a16.157 16.157 0 0 0 3.722-.268c.238.252.582.404.963.31 5.22-1.281 10.44-2.563 15.662-3.837 2.263-.552.936-2.818.357-4.18l-1.283-3.018a1.04 1.04 0 0 0-.006-.546 319.087 319.087 0 0 1-5.387-23.833c2.867-1.008 5.756-1.855 8.653-2.767 3.679 9.882 6.564 19.857 7.83 30.366.083.686 1.173.693 1.088 0z" fill="#666D7D" fill-rule="nonzero"/>
        <path d="M81.646 70.47c.486.178 1.005.27 1.522.273a7.292 7.292 0 0 0 8.81-1.794 6.406 6.406 0 0 0 1.395-1.103c.591-.313 1.265-1.082 1.588-2.645.673-1.983.64-4.19-.333-6.477a13.01 13.01 0 0 0-3.454-5.492.976.976 0 0 0-.621-.264c-2.394-1.903-5.557-2.778-8.595-2.412-.334-.015-2.018.376-2.541.624-.494.06-.971.43-.961.96a2.33 2.33 0 0 0-.373.199c-.058-.406 1.018 1.464 1.016 3.9-.002 1.377-1.25 2.886-1.016 4.387.17 1.09 1.05 1.318 1.298 2.368.4 1.687 1.985 2.22 2.265 3.624.486 2.44-.128 4.395 0 3.852z" fill="#EE3232" fill-rule="nonzero"/>
        <path d="M102.395 97.785c-2.401-4.984-4.27-10.156-5.499-15.552-.102-.45-.778-.257-.687.19 1.108 5.476 2.893 10.82 5.401 15.82.264.525 1.038.065.785-.458z" fill="#666D7D" fill-rule="nonzero"/>
        <path d="M82.985 30.656a21.897 21.897 0 0 0-.482-2.324c.237-1.425-.703-2.606-2.19-3.067-.996-.309-2.206-.157-3.229-.158-1.4-.001-2.8 0-4.2-.005a.948.948 0 0 0-.818-.316l-3.536.273a45.232 45.232 0 0 0-6.016.163.848.848 0 0 0-.686-.224l-2.799.289c-.366-.32-.72-.237-1.612-.188-.185-.193-.45-.31-.795-.275l-6.395.639a1.03 1.03 0 0 0-.693-.224l-11.785.873a1.173 1.173 0 0 0-1.097 1.409c-.2.387-.351 2.385-.31 3.766l-.056 1.024c-2.097-.446-3.913 1.63-3.381 3.27-.354.827.411 2.051 1.677 2.1.199.115.407.206.619.268.233.263.591.387 1.042.208.23-.092.448-.141.655-.158.167.506.47.97.904 1.34-.07.245-.051.526.106.817.23.424.474.84.726 1.251.29.635.633 1.245 1.022 1.832-.075.298.035.498.115.704.566 1.473 1.537 2.077 1.63 2.195.355.282 2.1 2.585 5.567 4.458 2.75 2.24 6.199 3.333 9.694 3.402 3.775.484 7.574-.09 11.034-1.609 4.193-.67 8.547-4.858 10.99-8.267 2.782-3.408 3.676-5.863 3.933-6.355.032-.082.068-.162.102-.242 1.575-.284 2.938-1.053 3.58-2.804.832-2.264-1.294-3.929-3.316-4.065z" fill="#AAA" fill-rule="nonzero"/>
        <path d="M100.553 54.717c-.796-.484-1.459-.598-3.672-.873 2.625-2.713.521-6.327-2.095-6.838-2.077-1.137-4.798-.056-6.287 1.56-.69.748-.69 2.18.345 2.67 3.279 1.555 4.161 4.215 4.597 4.659.072.299.223.6.47.883 1.759 2.015 1.878 4.113 2.082 4.556-.519.306-.862.86-.675 1.564.04.416.097.904.11 1.394-.309-.824-1.567-1.223-2.143-.236-.191.327-.392.645-.6.957-2.42 3.369-6.682 4.177-10.58 2.638-.296-.117-.548-.057-.73.095-.294-2.17-1.325-4.278-2.797-5.781-.912-.93-2.657.335-1.845 1.42 1.726 2.306 2.564 4.842.994 7.46-2.234 3.726-7.888 4.79-16.358 5.506-3.17.269-6.628.645-9.716-.296-1.025-.313-1.372 1.18-.431 1.56 3.268 1.326 7.183.909 10.623.714 7.987-.453 13.849-1.406 17.12-5.25.2.129.437.2.673.198-.5.674-.883 1.346-.689 2.161.087.363.483.852.484 1.204.003 1.077 1.175 1.703 2.097 1.2 2.311-1.256 5.23-.533 6.134-2.296.383-.747.235-1.657.613-2.351.338-.622.096-1.513-.512-1.844 2.852-.517 5.034-2.371 6.72-4.768.436-.571.804-1.198.905-1.426-.08.583-.29 1.105-.756 1.43-1.124.783-1.204 2.884.418 3.193 2.123.405 3.972-.325 5.255-2.05 1.213-1.631.691-4.166-.685-5.503.94-.18 1.752-.541 2.414-1.235.128-.084.25-.194.36-.336 1.584-2.038.49-4.763-1.843-5.94zM81.027 71.639c.05-.14.094-.282.134-.425.025.053.054.107.09.16-.045.054-.069.084-.224.265zm.37-1.587c.034-.27.05-.544.057-.817.252.163.51.308.77.442a1.42 1.42 0 0 0-.827.375zM42.507 62.673c-.104-.312-.38-.742-.582-1.163-.048-.484-.12-.966-.207-1.444-.163-.907-1.5-.803-1.729 0-.153.541-.168 1.097.141 1.777.098 1.705-.073 1.992.173 2.365a6.501 6.501 0 0 0-.548 3.452c.142 1.223 1.878.859 1.65-.107-.074-2.66 1.525-3.606 1.102-4.88zM44.387 84.607a41.4 41.4 0 0 1-4.133-3.579 1 1 0 0 0-.265-.185c-.77-1.268-.85-1.532-1.279-1.656a23.42 23.42 0 0 1-.542-1.14c-.29-.657-1.349-.593-1.659 0-1.555 2.984-3.582 7.18-7.326 7.683-.902.121-.685 1.636.214 1.578a6.725 6.725 0 0 0 2.809-.821c.501.314.687.105 2.78-.346.38.386.519.29 4.451.004 1.005-.073 2.31.02 3.244-.306.255.123.51.248.76.38 1.095.578 1.888-.902.946-1.612zM20.785 87.316c-4.32.468-9.237.457-13.002 2.898-.262.17-.413.386-.476.612-1.48 1.2-2.698 2.627-3.32 4.488-.674 2.009-.131 4.476 1.463 5.891.859.762 2.117-.47 1.269-1.266-.61-.61-.514-1.02-.414-1.543.304-.36.82-2.413 3.149-4.447.138-.02.28-.07.426-.157 3.484-2.094 7.302-3.281 11.187-4.396 1.114-.319.941-2.212-.282-2.08zM59.802 102.052a16.716 16.716 0 0 1-2.241-2.323c-.525-.66-1.545-.214-1.763.464a11.687 11.687 0 0 1-2.833 4.67.98.98 0 0 0-.246.425c-.195.042-.393.082-.595.118-.946.166-.644 1.527.215 1.584 2.817.186 5.7-1.308 7.463-3.445.343-.417.468-1.093 0-1.493zM47.835 101.8c-1.916-2.318-3.428-3.104-5.16-6.503-.12-.237-.504-1.415-.81-2.123a.91.91 0 0 0 .58-.47c.698-1.296-.669-2.789-2.028-1.994-1.574.92-.693 3.074-.19 4.359 1.199 3.055 3.725 6.373 6.63 7.997.84.47 1.545-.581.978-1.267zM39.935 105.609c-4.04-2.667-6.257-7.163-6.032-11.96.066-1.424-2.066-1.381-2.192 0-.494 5.402 2.569 10.927 7.373 13.412.968.502 1.756-.854.85-1.452zM30.483 108.965c-3.577-3.356-5.957-7.393-7.033-12.088-.131-.551-.005-.633-.479-.883 1.197.633 2.261-1.193 1.06-1.809-1.223-.627-2.703.138-2.779 1.57-.092 1.754.754 3.71 1.437 5.29 1.51 3.495 3.764 6.58 6.697 9.015.756.628 1.838-.4 1.097-1.095z" fill="#444955" fill-rule="nonzero"/>
        <path d="M26.176 80.2a19.8 19.8 0 0 1-.779-.051c-.044-.287-.223-.559-.584-.744-3.651-1.875-7.422-3.536-11.117-5.322-.635-.306-1.56-.09-1.719.698-.13.637.007 1.243.4 1.654.197 2.39 2.782 3.29 4.92 4.079 2.915 1.075 5.993 1.862 9.106 1.362.994-.16.69-1.632-.227-1.675zM31.3 72.48l-.379-.054c-.293-.311.287.09-13.908-6.364-.983-.447-1.925.272-1.742 1.336.489 2.841 3.52 4.275 5.925 5.243 2.578 1.037 5.531 1.772 8.375 1.664.27.068.526.042.752-.05.328-.03.654-.07.977-.125.812-.14.831-1.529 0-1.65zM34.176 64.504c-.304-.06-.612-.114-.924-.167a1.234 1.234 0 0 0-.37-.375 44.23 44.23 0 0 0-11.89-5.541c-1.044-.31-1.801.85-1.339 1.738 2.628 5.05 9.065 6.377 14.294 6.032.919-.061 1.232-1.491.229-1.687z" fill-opacity=".301" fill="#FFF" fill-rule="nonzero"/>
        <path d="M79.097 56.83c-.3-1.382-2.188-.924-2.308.311a4.54 4.54 0 0 1-.574 1.85c-1.32 1.144-4.28 1.665-5.354 1.889-3.155.656-6.387.758-17.03 1.31-1.01.053-2.03.12-3.05.156-1.084-.15-1.412-.259-1.762.02-1.192-.019-2.38-.12-3.547-.378-1.001-.221-1.409 1.233-.424 1.533 1.362.416 2.75.604 4.151.682.07.048.142.091.224.123 4.555 1.748 12.155.595 18.085.244 3.223-.191 8.095-.526 10.516-4.236.89-.878 1.396-2.022 1.073-3.504z" fill="#444955" fill-rule="nonzero"/>
        <path d="M79.78 38.407a21.466 21.466 0 0 1-3.22 5.648c-.492-1.012-.13-.013-1.375-2.868-.404-.928-1.85-.256-1.599.673.172.635.395 1.246.642 1.856.26.645.503 1.374.978 1.893a21.963 21.963 0 0 1-1.853 1.725 56.744 56.744 0 0 1-1.95-5.829c-.308-1.104-1.872-.625-1.687.464.38 2.236 1.098 4.49 2.039 6.572-.501.343-1.016.666-1.544.967-.262-1.105-.812-2.205-1.129-3.272-.474-1.595-.768-3.225-1.087-4.855-.188-.961-1.728-.732-1.696.23.054 1.592.314 3.186.648 4.742.288 1.335.57 2.934 1.283 4.158-.72.32-1.458.603-2.212.846-.183-1.55-.644-3.087-.953-4.615-.375-1.855-.587-3.784-1.104-5.605-.262-.927-1.64-.727-1.661.224-.038 1.667.267 3.369.504 5.016.263 1.818.434 3.82 1.049 5.559-.86.183-1.732.32-2.618.4.217-.315.194-.543.218-1.01a.935.935 0 0 0-.135-.547c-.203-1.78-.413-3.556-.563-5.343-.17-2.02-.148-4.083-.49-6.083-.132-.773-1.437-.779-1.564 0-.531 3.269.218 12.41.559 13.073-.944 0-1.877-.069-2.797-.194-.454-6.374.203-8.165.233-11.175.009-.925-1.289-1.045-1.565-.211-1.117 3.377-1.123 7.395-.883 10.963a21.6 21.6 0 0 1-3.063-1.007c.297-1.383.206-2.842.467-4.245.292-1.567.841-3.046 1.328-4.557.292-.908-1.012-1.388-1.493-.628-1.486 2.346-2.425 6.406-2.348 8.458a22.668 22.668 0 0 1-2.203-1.357c.421-.48.498-2.258.893-3.49.356-1.108.994-2.049 1.498-3.086.4-.824-.587-1.65-1.288-.991-1.494 1.407-2.714 4.057-2.787 6.277a23.22 23.22 0 0 1-1.836-1.726c.438-.66.712-1.445 1.077-2.147.444-.853.98-1.653 1.481-2.472.501-.82-.664-1.719-1.328-1.023-1.094 1.144-2.304 3.061-2.71 3.926a22.865 22.865 0 0 1-2.789-4.57c-.384-.84-1.849-.228-1.498.63 3.674 8.985 12.363 14.736 22.079 14.725 9.872-.01 18.66-6.443 22.166-15.537.508-1.318-1.614-1.886-2.113-.582zM82.567 32.386c-.233-.091-.627-.079-.856.013-.375.15-.584.334-.823.65-.135.179-.2.44-.2.689-.414 1.539 1.572 2.49 2.592 1.353.674-.753.71-2.15-.713-2.705zM37.686 33.96c-.15-.175-.379-.28-.59-.356-.38-.138-.764-.037-1.113.123-.466.213-.756.835-.62 1.329-.009.213.064.399.15.592.246.559 1.125.879 1.722.53.165-.097.258-.22.373-.361.247-.301.475-.54.475-.95 0-.341-.173-.647-.397-.907z" fill="#8E8E8E" fill-rule="nonzero"/>
        <path d="M57.355 27.406a1.185 1.185 0 0 0-.274-.967 77.99 77.99 0 0 0-.69-.761c-.499-.545-1.256-.347-1.657.12-.363-.06-.966-.032-1.331.005-.54-.992-2.33-.365-4.194-.138-5.048.614-7.99.234-11.427.193-.89-.01-1.096 1.358-.211 1.561 3.811.873 8.413.659 11.932.452-.374.47-.664 1.038-.878 1.653-3.118 5.248-.055 9.576 3.322 9.833 2.838.215 4.808-2.204 5.903-4.534 1.161-2.47 1.037-5.196-.495-7.417zM82.027 25.87c-1.925-.391-4.001-.283-5.96-.326-1.783-.04-3.568-.065-5.353-.09-.377-.148-1.189-.08-1.556.03-.867-.577-1.412-.527-2.424-.243-1.186-.222-2.64.004-3.599.006-1.093.001-1.494 1.325-.9 2.006a9.38 9.38 0 0 0-.362.703l-.02.028c-.434.676-.665 1.503-.738 2.382-.28 1.6-.141 3.262.588 4.67.156.301.36.534.596.706.786 1.64 2.518 2.802 4.441 2.52.898-.131 1.778-.602 2.462-1.266 2.145-.826 3.837-3.812 1.572-9.234 8.83.022 9.529.085 11.253-.236.832-.155.817-1.49 0-1.656z" fill="#8E8E8E" fill-rule="nonzero"/>
        <g fill="#FFF" fill-rule="nonzero" opacity=".37">
            <path d="M59.99 3.916c.12.576-.574 1.243-1.453 2.14-2.392 2.418-3.47 4.08-4.518 7.669-.36 1.194-.62 2.106-1.195 2.232-1.31.272-3.295-4.224-.61-8.656 1.893-3.102 5.181-4.405 6.971-3.99.473.112.743.326.805.605z"/>
            <path d="M58.559 4.306c.13.346-.235.785-.76 1.31-1.744 1.727-1.253 1.1-3.547 3.793-.478.554-.89.938-1.233.808-.338-.127-.431-.748-.209-1.6.488-1.92 2.374-3.861 4.202-4.442.818-.267 1.421-.205 1.547.131z"/>
        </g>
        <g fill="#FFF" fill-rule="nonzero" opacity=".37">
            <path d="M44.455 10.441c.18.555-.122 1.191-.556 1.855-.611.939-2.57 3.244-3.563 4.149-.592.534-1.178.93-1.751.821-1.236-.23-1.601-3.14.502-5.578 1.565-1.814 3.71-2.31 4.737-1.869.33.138.54.35.631.622z"/>
            <path d="M43.604 11.218c-.187.601-.928 1.262-1.4 1.69-.58.519-1.738 1.5-2.376 1.074-.942-.626.628-3.23 2.659-3.632.94-.18 1.29.336 1.117.868z"/>
        </g>
        <g transform="translate(71.204 7.684)" fill="#FFF" fill-rule="nonzero" opacity=".37">
            <ellipse transform="rotate(-69.022 3.306 4.288)" cx="3.306" cy="4.288" rx="3.797" ry="2.081"/>
            <path d="M4.312 1.375c1.361.53-.097 4.304-1.458 3.775-1.361-.53.097-4.304 1.458-3.775z"/>
        </g>
        <g fill="#FFF" fill-rule="nonzero" opacity=".37">
            <path d="M29.537 47.725c.168.574-1.055 1.531-2.884 2.938-2.168 1.69-2.76 2.202-3.12 2.484-3.87 3.343-5.31 5.177-7.357 7.662-1.881 2.31-3.716 5.4-4.548 5.03-1.467-.651 1.196-11.73 11.939-17.083a15.85 15.85 0 0 1 3.497-1.242 6.148 6.148 0 0 1 1.262-.167c.71-.022 1.129.102 1.21.378z"/>
            <path d="M26.84 49.33c-1.053 1.085-1.707 1.194-8.515 6.904-.613.485-.902.729-1.263.933-1.222.685-.913-.538-.149-1.722.724-1.083 1.207-1.598 1.772-2.203 1.353-1.505 3.807-3.356 6.217-4.344.634-.237 1.164-.414 1.57-.453.863-.088.96.29.368.884z"/>
        </g>
        <g fill="#FFF" fill-rule="nonzero" opacity=".37">
            <path d="M46.473 51.927c.672.708.265 2.29-.052 4.488-.346 2.33-.417 3.88-1.258 4.325-.882.454-2.265-.685-2.756-2.639-.802-3.264 1.368-6.324 3.218-6.457.362-.026.648.077.848.283z"/>
            <path d="M46.03 53.64c-.073.46-.238.987-.412 1.508-.45 1.31-.821 2.163-1.433 2.17-.754.008-1.138-1.456-.632-2.902.743-2.205 2.784-2.757 2.478-.777z"/>
        </g>
        <g fill="#FFF" fill-rule="nonzero" opacity=".37">
            <path d="M44.727 65.662c.901.362 1.198 1.937 1.914 3.98.751 2.176 1.46 3.527.96 4.331-.739 1.161-3.86.106-4.917-3.037-1.045-3.107.748-5.778 2.043-5.274z"/>
            <path d="M44.375 66.503c.602.15.786 1.069.98 2.4.184 1.344.264 2.27-.273 2.565-.666.368-1.703-.765-1.901-2.293-.215-1.51.457-2.858 1.194-2.672z"/>
        </g>
        <g fill="#FFF" fill-rule="nonzero" opacity=".37">
            <path d="M89.685 81.91c-.251.195-.517.397-.797.603-10.103 6.948-21.704 5.241-21.557 3.66.068-.716 2.278-1.229 5.751-2.039 1.136-.242 4.256-1.043 6.879-1.85 2.487-.765 5.068-1.75 5.698-1.977 1.15-.419 4.048-1.62 5.412-1.934 2.67-.61.834 1.785-1.386 3.536z"/>
            <path d="M89.864 80.551c-1.452 1.722-6.437 4.302-10.441 4.806-.564.089-1.228.107-1.636.064-.793-.082-.93-.444-.153-.948.347-.232.861-.451 1.465-.73.724-.302 8.492-3.457 8.814-3.576a9.528 9.528 0 0 1 1.519-.474c.818-.166.999.172.432.858z"/>
        </g>
        <g fill="#FFF" fill-rule="nonzero" opacity=".37">
            <path d="M84.795 55.13c-.932-.228-2.163-.597-3.003-1.08-.42-.242-1.233-.776-1.416-1.242-.473-1.198 2.1-2.534 5.478-1.697 4.733 1.161 6.863 5.947-1.059 4.02z"/>
            <path d="M86.327 54.437c-.602-.192-1.187-.436-1.615-.718-1.043-.691-.737-1.469.384-1.595 1.148-.134 2.78.385 3.625 1.15 1.015.911.564 2.093-2.394 1.163z"/>
        </g>
        <g fill="#FFF" fill-rule="nonzero" opacity=".37">
            <path d="M8.123 99.666c.082-2.826 1.893-5.745 4.83-7.278 2.969-1.56 6.159-1.248 6.28-.281.163 1.248-4.076 2.419-6.267 5.687-2.118 3.144-.673 5.805-.669 6.827.006 1.757-4.292-.2-4.174-4.955z"/>
            <path d="M9.077 100.711c-.44-3.885 3.284-6.657 3.885-5.844.426.566-1.03 2.068-1.612 4.376-.429 1.622-.103 3.114-.109 3.862-.036 1.493-1.904.127-2.164-2.394z"/>
        </g>
        <g fill="#FFF" fill-rule="nonzero" opacity=".37">
            <path d="M14.757 47.735c-2.374-1.292-4.868-4.358-5.624-6.928-.657-2.235.242-3.237 2.46-1.619 1.93 1.415 4.4 4.45 5.359 6.587 1.1 2.455-.1 3.104-2.195 1.96z"/>
            <path d="M13.301 45.411c-2.568-2.97-1.46-5.024 1.698-1.385 3.114 3.635.879 4.393-1.698 1.385z"/>
        </g>
        <path d="M65.812 26.064A3.26 3.26 0 0 0 63.956 26c-2.923.78-3.534 4.673-2.184 7.02 1.44 2.502 4.972 2.102 6.74.296 2.381-2.435.785-6.896-2.7-7.252zM57.412 27.596c-.68-.976-1.72-1.576-3.066-1.257-4.276-.182-4.989 4.933-2.681 7.466 1.7 2.407 5.504 1.973 6.565-1.573.21-.704.312-.92.384-1.474.166-1.284-.352-2.381-1.202-3.162z" fill="#777" fill-rule="nonzero"/>
        <g transform="translate(50.137 25.183)" fill-rule="nonzero">
            <ellipse fill="#292524" transform="rotate(-14.751 4.187 5.123)" cx="4.187" cy="5.123" rx="3.149" ry="4.471"/>
            <ellipse fill="#FFF" transform="rotate(-14.751 3.368 3.562)" cx="3.368" cy="3.562" rx="1.419" ry="2.015"/>
            <path d="M4.677 4.85c.182.691.759 1.139 1.288 1 .529-.14.81-.812.627-1.503-.182-.69-.759-1.138-1.287-1-.53.14-.81.812-.628 1.503z" fill="url(#a)"/>
        </g>
        <g transform="translate(60.21 25.376)" fill-rule="nonzero">
            <ellipse fill="#292524" transform="rotate(-67.096 4.646 5.34)" cx="4.646" cy="5.341" rx="4.472" ry="3.149"/>
            <ellipse fill="#FFF" transform="rotate(-67.096 4.953 3.606)" cx="4.953" cy="3.606" rx="2.015" ry="1.419"/>
            <path d="M5.182 5.425c-.279.658-.097 1.364.407 1.576.504.212 1.138-.15 1.417-.807.278-.658.096-1.364-.408-1.577-.504-.212-1.138.15-1.416.808z" fill="url(#b)"/>
        </g>
        <path d="M48.384 20.33c-.451.006-.9.016-1.357.01-2.869-.025-6.715-.357-9.475-.64l.061.003c-.126.012-.884.033-1.448.311-.989.45-1.631 1.122-2.114 2.055-.23.394-.518 1.375-.512 1.943-.02.488.007.953.174 1.48a.61.61 0 1 1-1.172.339 5.512 5.512 0 0 1-.188-1.886c.009-.477.2-1.203.208-1.237.561-1.705 1.51-2.986 3.183-3.702.225-.104.695-.24.918-.27 1.602-.262.704.133 11.742.959a.318.318 0 0 1-.02.636zM69.896 20.251l.912-.045c4.634-.29 11.062-1.563 13.808-1.037.664.147 1.13.335 1.705.833.44.475.835.99 1.071 1.835.356.99.392 2.499.378 3.504a.64.64 0 0 1-1.281-.018c.07-5.043-1.415-5.11-3.918-5.127-3.55.001-6.025.457-9.302.628-1.463.063-1.88.028-2.452.012a29.076 29.076 0 0 1-.93-.071.258.258 0 0 1 .01-.514z" fill="#292524" fill-rule="nonzero"/>
        <path d="m34.48 25.864.565-.067c9.858-1.129 28.06-1.45 38.278-1.52 2.315-.017 8.02-.103 11.825 1.246.825.293.492 1.555-.416 1.356-.86-.188-3.029-.993-7.608-1.182-1.654-.074-3.13-.065-8.07-.077-19.503-.002-28.778.803-34.527.918a.339.339 0 0 1-.047-.674z" fill="#292524" fill-rule="nonzero"/>
        <path d="M37.233 26.103c-.495 1.903-.666 3.82-.662 5.752a.399.399 0 0 1-.798.002c0-1.31.288-3.765.964-5.896a.258.258 0 0 1 .496.142zM37.412 37.884l.207.65c.364 1.076.053.37.876 2.37.203.502.11.278.286.635 1.094 2.1 2.065 3.856 4.352 6.073.556.54.648.639.829.776 1.795 1.469.924.764 1.882 1.448 1.714 1.176 2.66 1.569 3.285 1.859 4.328 2.014 8.267 2.073 10.303 2.144-.005 0 .042 0-.006.001 1.56-.07 2.285-.079 3.045-.208 1.158-.147 1.175-.144 1.348-.188 2.147-.455 1.375-.259 3.612-.928.034-.012 1.633-.62 2.143-.872 1.947-.956 1.124-.546 2.802-1.525.145-.08.174-.105 1.012-.701.805-.58.295-.167 1.858-1.47.202-.158 1.462-1.394 1.595-1.557.656-.75 1.351-1.471 2.415-3.117 1.504-2.386 1.948-3.67 2.625-5.68.347-1.031 1.733-.497 1.428.415-.442 1.323-.608 1.837-.929 2.528-.315.793-.905 1.982-1.888 3.534-.471.726-.06.167-1.16 1.635-.393.523-.248.344-.679.835-1.07 1.218-.737.863-1.564 1.669-2.44 2.372-4.465 3.537-7.237 4.874-.108.048-1.885.732-1.966.76-1.831.539-2.016.601-2.412.668-2.261.465-1.384.292-2.142.397-2.025.244-1.502.195-3.828.28-.062.002.012.004-.528-.018-2.06-.084-1.34-.025-3.622-.296-.183-.015-.21-.026-1.419-.266-3.147-.63-6.15-1.9-8.802-3.757-.992-.721-.13-.01-1.977-1.552-.185-.144-.224-.19-1.287-1.243-.367-.363-1.402-1.606-1.463-1.691-1.203-1.684-.916-1.255-1.414-2.092-.813-1.37-.416-.694-1.206-2.276-.694-1.469-1.115-3.066-1.336-3.822a.501.501 0 0 1 .962-.292zM82.638 30.848l-.018-.227c-.181-2.164-.71-3.514-.802-3.987-.187-.88-.123-.833-.123-.833a.692.692 0 0 1 1.041-.384c.045.029.083.104.143.198.75 1.184 1.12 3.609 1.242 5.115a.743.743 0 0 1-1.483.118z" fill="#292524" fill-rule="nonzero"/>
        <path d="m80.594 30.995.04-.023c2.5-1.433 6.916-.234 6.786 3.451a3.499 3.499 0 0 1-.464 1.51c-.759 1.344-2.215 2.093-3.743 2.393-.935.16-1.145.172-2.044.193-.235-.005-.16-.002-.617-.016a.625.625 0 0 1 .025-1.249c1.179.011 1.407.007 2.394-.15 1.776-.331 2.812-1.27 3.1-2.033.143-.317.148-.449.192-.622.003-.02.025-.296.027-.317 0 0 .002.109-.005-.098-.071-2.67-3.522-3.49-5.433-2.56a.273.273 0 0 1-.258-.479zM36.138 32.404h.024c-.26.016-.562.025-.888.131a3.029 3.029 0 0 0-2.195 2.843l-.004.083c0-.013 0 .035-.001-.027.036.64.083.637.201.96.078.139.16.272.268.382.844.913 2.792.843 3.67.498a.65.65 0 1 1 .475 1.211c-1.841.705-5.015.405-5.717-1.93-.034-.137-.081-.26-.1-.412a4.074 4.074 0 0 1 .056-1.6 4.21 4.21 0 0 1 3.05-3.104c.332-.095.674-.118.955-.134 1.186-.042 2.201.411 2.49 1.507.116.44-.484.699-.726.313-.358-.572-.88-.715-1.558-.721z" fill="#292524" fill-rule="nonzero"/>
        <path d="M33.756 27.007s-.819 1.864-.339 3.227c.173.533.546.97.932 1.205.109.077.377.209.413.228.313.167.37.475.246.705a.508.508 0 0 1-.598.245s-.107-.034-.292-.106c-.168-.082-.401-.18-.716-.432a2.904 2.904 0 0 1-.74-.935c-.701-1.37-.352-3.322.604-4.428a.285.285 0 0 1 .49.29zM86.562 26.613c.734 1.433 1.157 3.216.162 4.47-.194.255-.352.3-.554.39a1.289 1.289 0 0 1-.24.083c-.26.026-.468-.253-.302-.529.136-.221.05-.055.176-.323.184-.401 1.034-.821-.005-3.76-.174-.494.53-.787.763-.331zM51.25 19.13c-.916-5.454-1.545-11.673.226-16.863.129-.377.703-.225.616.177-1.379 6.366-.858 10.538-.435 16.637a.206.206 0 0 1-.408.048zM66.052 19.126l.13-.754c.081-.481.216-1.166.373-1.985.67-3.378 1.653-7.876 1.54-11.993-.022-1.207-.107-1.525-.065-1.974.04-.548.04-.666.096-.77.13-.233.51-.294.662.114.225.669.273.908.303 1.447.165 2.4.07 5.273-1.111 10.566-.228 1.022-.461 1.97-.66 2.78-.208.81-.376 1.482-.504 1.952l-.195.74a.291.291 0 0 1-.57-.123zM47.904 18.515c-.372-.807-.879-2.268-1.31-4.367-.796-3.957-.489-6.764-.527-7.065a.02.02 0 0 1-.003-.014c0 .01.008.038.023.051a.17.17 0 0 0 .073.076.078.078 0 0 0 .044.027s-.057.003-.215.027c-.73.11-.569.018-1.365.105-3.544.41-8.177 3.548-8.149 8.61.013 1.034.193 2.189.337 3.234.055.4-.524.536-.65.142a13.63 13.63 0 0 1-.597-3.6c-.226-5.152 5.031-9.526 9.696-9.611.36-.01.377-.014.965.088 1.187.161.727 1.127.716 2.899-.022 4.477 1.204 8.299 1.467 9.597a.192.192 0 0 1-.15.226c-.189.038-.238-.153-.355-.425zM70.859 18.81c.772-4.144 1.8-7.84 1.833-12.352.006-.121-.024-.14-.26-.824l.767-.186c.876-.212 3.529.091 5.541 1.16.94.532 1.34.774 2.326 1.712.324.346.568.59 1.029 1.224 1.044 1.414 1.899 3.591 2.136 5.823.223 1.983-.01 3.297-.168 3.679-.079.19-.359.16-.395-.043-.125-.682.06-4.398-1.91-7.808-2.87-4.718-7.511-4.212-8.559-4.507l.621-.608c-.239.598-.03-.258-.319 2.461-.079.648-.155 1.322-.337 2.44a55.315 55.315 0 0 1-1.924 7.925.197.197 0 0 1-.381-.096z" fill="#292524" fill-rule="nonzero"/>
        <path d="M68.694 1.332a.66.66 0 1 1-.494 1.227c-1.912-.756-3.705-1.203-6.172-1.355-4.231-.204-7.345.673-11.016 2.231-.323.138-.57-.314-.276-.509 4.387-2.92 11.488-4.02 17.958-1.594zM46.493 7.66c1.56-1.203 3.095-1.937 4.444-2.31a.403.403 0 1 1 .205.777c-1.308.294-2.778.912-4.32 1.98-.295.204-.612-.228-.329-.447zM69.2 4.862l.186.018c1.626.126 3.406 1.313 3.923 1.838.364.37-.106.955-.547.685-.924-.567-1.777-1.453-3.667-1.778a.385.385 0 0 1 .105-.763zM26.559 44.616c-.113.003-.245-.062-.313-.091a.112.112 0 0 0-.035-.01l.018.004c.055-.002.012 0 .023 0-1.372.243-18.706 13.756-19.117 31.851-.02 1.805.138 2.354.468 3.376 1.912 5.142 9.604 7.526 15.031 7.597-.159.006.842-.026 1.29-.083.578-.078 1.057-.124 2.231-.491 8.666-2.686 16.505-18.976 11.809-34.615a.705.705 0 1 1 1.348-.418l.089.298c2.273 7.276 1.893 16.004-1.675 24.233-2.001 4.568-4.932 8.74-9.395 11.029-1.149.541-1.57.657-1.77.718-1.604.487-2.367.553-3.861.612-3.977.098-16.626-2.237-16.719-11.59.026-1.453.068-2.444.334-4.334.126-.794.267-1.58.445-2.35 3.464-15.183 17.625-26.535 19.413-26.37.065-.005.055-.004.1 0a.57.57 0 0 1 .206.072c.152.089.119.061.07.078l-.01.006a.243.243 0 0 1 .32.135c.065.163-.053.348-.3.343z" fill="#292524" fill-rule="nonzero"/>
        <path d="M23.236 44.98a1.623 1.623 0 0 1-.352-.565c-.056-.148-.072-.265-.083-.335l-.006-.058c-.002-.013-.002-.01-.001-.036-.002-.077-.006-.093.005-.162.152-1.28 2.607-1.674 3.904-1.637 1.152.014 2.236.218 3.37.524 4.11 1.113 9.96 4.296 11.536 8.254 1.028 2.576-.196 4.445-.919 4.35-.388-.053-.563-.474-.436-.786.079-.234.046-.24.224-.647.322-.796.165-1.623-.134-2.423-.947-2.464-3.875-4.595-6.192-5.85-2.127-1.16-5.08-2.26-7.225-2.402-.416-.02-.567-.04-1.166 0-.524.04-1.664.182-2.112.459a.622.622 0 0 0-.255.253c-.01-.001-.024.098-.025.108v-.017l-.002.018-.005.073c-.004.168.027.33.081.485.045.131.09.204.112.241.051.09.016.19-.06.234-.125.07-.21-.033-.26-.081z" fill="#292524" fill-rule="nonzero"/>
        <path d="m32.705 43.736.16-.23c.71-1.003 2.065-1.953 3.913-2.22.746-.093 1.556-.079 2.282.135a.646.646 0 1 1-.35 1.245 5.02 5.02 0 0 0-.874-.169c-1.096-.11-2.197.156-2.963.6-.441.237-.942.656-1.211.994l-.172.221a.488.488 0 0 1-.785-.576zM44.497 50.59s-.04.047-.12.136c-3.642 4.189-3.421 8.551-2.037 10.426.425.578.999 1.08 1.696 1.45 2.625 1.429 7.165 1.633 10.497 1.705 19.8.353 24.13-1.178 23.913-9.044-.155-2.203-.795-3.96-2.332-5.686l-.135-.15a.695.695 0 0 1 1.031-.931l.13.143c2.397 2.672 3.101 6.086 2.475 9.561-1.153 6.308-7.243 7.358-19.243 7.375-11.478-.009-18.682-.537-19.67-6.195-.556-3.337 1.031-6.74 3.32-9.216a.319.319 0 0 1 .474.427zM8.89 34.755l-.08.004c-1.893.09-3.608 1.827-4.668 3.392-1.33 1.969-1.305 2.85-1.305 2.85 0-.007-.007-.055-.07-.128 8.105 8.62 12.256 12.794 12.256 12.794a.715.715 0 0 1-.031 1.012.72.72 0 0 1-1-.016c-1.92-1.92-6.443-6.679-11.343-12.181-.854-.975-.872-.977-.932-1.263-.17-1.012.93-2.83 1.535-3.685 1.339-1.868 3.296-3.643 5.616-3.648a.435.435 0 0 1 .022.87z" fill="#292524" fill-rule="nonzero"/>
        <path d="M9.208 34.037s.205.197.553.55c3.433 3.553 1.538 1.834 11.46 11.88l.54.558a.715.715 0 0 1-.016 1.013.72.72 0 0 1-1.008-.01l-.549-.551c-2.728-2.808-9.23-9.526-11.639-12.872a.436.436 0 0 1 .66-.568zM70.054 111.86c-.101-.088-.003-.02-.158-.115-.08-.034-.05-.016-.04-.018 2.733.373 29.267-3.03 40.937-9.073-.02.013.13-.074-.028.021.1-.099-.213.197-.155.17-.04.075-.033.086-.026.04.422-2.581-5.102-26.92-8.728-31.231-.183-.073 1.044.449.595.224-1.4.336-13.325 4.472-24.503 8.199-20.032 6.665-20.315 6.328-20.863 5.82-.185-.218-.2-.33-.177-.26.017.043.046.082.035.067a2.326 2.326 0 0 0-.105-.129c-.51-.583-1.368-1.426-2.087-2.146-6.029-5.909-14.465-13.864-15.095-14.452l.034.03c-.787-.078 1.31.56 1.072-.917a.715.715 0 0 1-.12.868.719.719 0 0 1-1.015-.01c-.047-.047-.066-.076-.109-.142-.237-1.476 1.86-.838 1.072-.915.093.078 11.212 10.554 16.242 15.592.302.31.984.998 1.249 1.347.038.053.088.117.135.216.038.098.032.02-.128-.175-.113-.104-.183-.124-.222-.14-.079-.025-.088-.019-.088-.021 3.155.01 42.668-13.941 44.447-14.247-.405-.23.878.277.718.255 3.839 4.55 10.072 30.802 8.916 32.839.036.014-.306.352-.246.278-.318.203-1.447.733-1.927.95-13.064 5.829-38.672 8.907-40.363 8.216-.152-.086-.166-.08-.306-.227-2.312-2.447-25.763-27.92-32.053-35.377a.436.436 0 0 1 .654-.574c.03.034 27.78 30.165 32.436 35.037z" fill="#292524" fill-rule="nonzero"/>
        <path d="M43.117 62.865c-.82 1.677-1.308 3.272-1.143 5.186a8.12 8.12 0 0 0 .288 1.564.49.49 0 1 1-.942.272c-.63-2.27-.207-5.089 1.437-7.243a.212.212 0 0 1 .36.22zM78.365 61.137l.315.382c1.771 2.12 3.443 4.255 3.855 6.754.022.125.051.577.05.718-.054 1.901-1.143 3.635-2.474 5.005-3.998 4.13-10.67 5.323-16.421 5.434l-.486.007-.468-.002c-.618.001-1.239-.01-1.837-.02a91.776 91.776 0 0 1-3.364-.136c-2.767-.156-4.76-.423-6.897-.685a.824.824 0 1 1 .19-1.637l1.883.223c1.19.136 2.883.319 4.926.45 1.02.065 2.128.118 3.302.15.585.012 1.18.027 1.806.029l.469.004c3.91-.034 7.406-.38 11.072-1.787 1.435-.6 1.687-.765 2.623-1.297.267-.174.54-.339.792-.527 1.4-.987 2.737-2.375 3.355-3.982a4.01 4.01 0 0 0 .285-1.31l-.005-.135c-.002-2.385-2.174-5.19-3.547-7.209a.358.358 0 0 1 .096-.498.362.362 0 0 1 .48.069z" fill="#292524" fill-rule="nonzero"/>
        <path d="m79.325 74.759.08.15c.493.954.882 1.896.917 2.947a3.37 3.37 0 0 1-.162 1.12.569.569 0 0 1-1.08-.354c.11-.334.18-.6.147-1.056-.051-.822-.41-1.675-.744-2.393a.468.468 0 0 1 .229-.622.471.471 0 0 1 .613.208zM83.274 69.874c-.004-.008.133.13.336.281.878.632 1.812.804 2.897.705 2.492-.235 8.13-2.09 8.365-7.523.02-.784-.025-1.411-.086-1.824-.719-5.743-5.534-10.195-10.617-10.31-.134-.002-.647-.03-1.896.016-2.286.083-3.74.387-3.74.387a.744.744 0 0 1-.862-.604.742.742 0 0 1 .603-.86c.67-.116 2.108-.414 5.24-.413 6.893-.104 12.888 6.06 12.636 13.672-.213 4.045-3.06 6.767-6.832 7.916-.98.297-1.896.467-2.748.516-1.25.08-2.542-.244-3.435-1.135-.211-.216-.22-.236-.332-.376a.326.326 0 0 1 .471-.448z" fill="#292524" fill-rule="nonzero"/>
        <path d="M84.109 68.492c.29.185.774.4 1.267.518 2.044.486 4.385-.477 6.202-1.53 1.184-.692 1.352-1.027 1.525-.781a.185.185 0 0 1-.025.241c-.196.183-.535.467-.704.596-1.537 1.174-3.544 2.138-5.486 2.1a4.657 4.657 0 0 1-3.007-1.01.117.117 0 0 1-.02-.164c.076-.097.174-.016.248.03zM71.201 62.378c1.326-.225 4.036-1.961 5.258-3.698.116-.188.248-.35.319-.515.077-.162.164-.298.203-.42.094-.258.17-.393.17-.393.056-.107.22-.057.208.063-.073.752-.526 1.52-.954 2.14-.55.718-.738.884-1.196 1.308-.41.342-.738.668-1.933 1.333a6.98 6.98 0 0 1-2.329.784c-.427.015-.65.046-1.26-.096-.267-.061-.194-.458.074-.426.66.079.91.033 1.44-.08zM71.11 76.257l.447-.067c.172-.019.847-.142 1.846-.544.28-.1 1.114-.529 1.564-.85.419-.262 1.149-.885 1.463-1.198.649-.577 1.344-1.46 1.61-1.95.412-.69.515-1.02.677-1.437.1-.258.435-.125.374.103-.19.709-.142.566-.411 1.265-.257.527-.25.54-.561 1.05-.087.153-.461.666-.532.751-.777.921-.825.906-1.428 1.398-.539.37-.652.488-1.712 1.023-.095.048-.675.296-.847.349-.97.33-1.71.445-1.994.458l-.452.037a.195.195 0 0 1-.045-.388zM87.647 50.144c-.033-.57.029-1.04.344-1.566.903-1.569 3.25-2.358 5.04-2.49.842-.054 1.34.018 2.007.149 2.918.707 4.169 3.214 3.7 5.386-.316 1.71-1.502 3.24-2.727 3.997l-.212.138a.696.696 0 0 1-.962-.205.693.693 0 0 1 .21-.962c.109-.071.408-.248.656-.46 1.49-1.176 2.053-3.03 1.756-4.17-.207-.941-.854-1.822-1.919-2.325-1.817-.881-4.601-.418-6.098.583-.863.548-1.203 1.138-1.324 1.91V50.1c-.004.1-.02.326-.027.427a.177.177 0 0 1-.188.165c-.162-.011-.17-.143-.256-.549z" fill="#292524" fill-rule="nonzero"/>
        <path d="M97.23 53.456c.203-.035.444-.078.832-.08 1.852.026 3.673.574 4.936 1.934.83.9 1.055 1.773 1.129 2.816a.777.777 0 0 1-.001.045c-.017.352-.051.9-.166 1.234-.177.534-.092.333-.382.93-.39.648-.881 1.193-1.673 1.69-1.597 1.023-4.252 1.332-6.076 1.002-.432-.078-.648-.45-.584-.805a.691.691 0 0 1 .785-.558c1.22.187 2.607.16 3.921-.212.897-.274 1.755-.715 2.329-1.46.243-.355.162-.218.358-.601.236-.584.228-.825.262-1.257.008-.098.004.021.002-.013-.03-.485.005-.284-.099-.84-.61-2.256-3.707-3.121-5.409-2.905-.347.055-.55-.148-.587-.38-.035-.223.085-.472.422-.54z" fill="#292524" fill-rule="nonzero"/>
        <path d="M100.45 62.435c1.573 1.59 1.75 4.157.803 5.774-1.253 2.331-5.46 3.522-8.113 1.286-.72-.607.158-1.743.963-1.105 2.19 1.734 5.892.59 6.35-1.775.262-1.229-.03-2.522-.762-3.542a.496.496 0 0 1 .76-.638zM45.263 86.878l-.303-.054c-.944-.174-2.073-.511-3.078-.48-4.137.215-34.344 3.31-34.763 12.981-.047.981.152 2.33.693 3.621 3.073 6.95 13.799 9.741 20.92 9.822 10.106.129 23.573-4.959 26.692-13.213.016-.033.474-.965.533-.997.564-.302 1.051-.057 1.245.342.03.064-.13.93-.138.974-.232.863-.894 2-1.177 2.504-5.337 9.21-25.827 16.308-41.474 8.488-3.322-1.636-6.304-4.022-7.78-7.431-.753-1.828-.747-3.165-.776-3.878 0 0-.009.055.028-.622 1.007-9.571 25.743-12.878 34.93-13.44.92-.052 1.287-.08 2.024.038.827.137 1.56.387 2.275.557l.296.068a.367.367 0 0 1-.147.72z" fill="#292524" fill-rule="nonzero"/>
        <path d="M30.136 110.559c-2.14-1.259-4.313-3.39-5.916-5.295-.755-1-.501-.64-1.184-1.687-.067-.122-.678-1.15-.946-1.888-.012-.034-.486-1.255-.575-2.015-.257-1.627-.279-4.301 1.022-5.317.63-.433 1.203-.402 1.954-.249.44.102.832.262.881.294.11.08.1.375-.12.498-.029.017-.05.028-.089.024-.034-.006-1.035-.376-1.73-.205-.358.07-.614.355-.778.68-.412.874-.407 2.232-.342 3.2.018.768.356 1.9.4 2.06.396 1.06.198.586.654 1.573 1.906 3.813 5.77 6.655 7.07 7.937a.248.248 0 0 1-.301.39zM40.328 107.355c-3.854-.452-7.263-4.299-8.393-8.487-.74-2.804-.454-5.795.285-6.474.461-.428 1.099-.195 1.573.22.352.316.811.897.922 1.144a.294.294 0 0 1-.148.39c-.177.079-.309-.034-.465-.15-.144-.107-.722-.585-1.272-.756-.183-.013-.038-.004-.038-.004.053.003.034-.006.068-.008.108-.035.098-.07.073-.024-.259.394-.906 3.543.61 7.162.952 2.287 2.1 3.435 3.063 4.346 2.003 1.65 3.434 1.893 4.074 2.199a.245.245 0 0 1 .116.327c-.087.18-.271.141-.468.115zM47.79 103.235c-2.747-.908-5.81-3.606-7.106-6.194-.602-1.252-.79-1.71-1.035-3.265-.053-.94-.153-2.414.45-3.133.097-.134.422-.375.805-.347.53.039 1.024.303 1.443.625.292.225.52.474.596.582.244.34-.134.779-.508.591-.767-.383-1.237-.67-1.62-.692l.03.001c.01.004.02.005.03 0 .014-.01.043-.003.055-.023.01.007.02-.021.016-.006a.014.014 0 0 1-.007.008c-.175.357-.18.971-.187 1.4.006.795.086 1.144.157 1.586.012.061.166.662.182.728.024.087.02.068.255.728.439 1.177 1.564 2.789 2.356 3.585 1.659 1.705 2.036 1.888 3.65 2.988.421.249.653.408.653.408.231.159.05.517-.214.43zM27.818 81.803s-.347.04-.956.107c-4.557.452-7.097.483-10.361-.731-2.596-.876-6.223-4.209-5.255-6.765.231-.59.675-.924 1.355-.87.47.044 1.228.282 1.591.473.18.095.22.281.145.422-.215.407-1.253.013-1.88.017.015 0-.006.003-.007.004-.326.032-.44.782-.16 1.483.622 1.458 1.533 2.162 2.114 2.687.848.674 1.953 1.277 2.536 1.48 1.357.527 1.716.581 2.867.828.319.057.635.087.945.132 2.519.295 4.775-.017 7.047.096a.32.32 0 0 1 .02.637zM26.638 74.813c-3.638-.444-9.149-2.405-11.163-5.357-.551-.783-.797-1.65-.654-2.727.126-.99.59-1.331.982-1.353.282-.022.535.04.826.126.712.213.896.288.896.288.351.13.312.639-.055.715-.46.096-1.06-.182-1.547-.182.02.002.005.005.01.005-.004-.002.013.003.018-.002.02-.01.015-.005-.003.034-.083.165-.115.708-.059 1.132.088.945 1.049 1.924 1.79 2.523 1.92 1.546 5.813 3.341 9.956 3.829 1.704.157 2.517.009 4.236-.147.322-.029.442.412.152.55-.908.435-3.05.853-5.385.566zM31.975 66.514c-5.709.161-12.984-2.891-12.933-7.112-.008-.457.08-1.037.486-1.286.288-.178.57-.149.866-.075.388.111.787.354 1.078.59.224.18.062.542-.223.497-.415-.066-.818-.234-1.177-.218h-.013c.037.001.01 0 .018.001l-.006.002c-.04.006-.038.027.005.01.045-.017.064-.055.06-.023-.004.044-.011.49.136 1.042.27.961.938 1.735 1.712 2.367 1.805 1.47 4.458 2.45 6.742 2.906 2.19.43 3.452.343 6.499.343.408 0 .455.6.05.662a27.776 27.776 0 0 1-3.3.294z" fill="#292524" fill-rule="nonzero"/>
        <path d="M21.69 68.256s.507.221 1.272.518c2.869 1.134 4.735 1.643 6.939 2.74.295.146.095.6-.221.469-4.48-1.861-6.121-2.359-8.165-3.347a.209.209 0 0 1 .175-.38zM25.159 60.267l.332.096c2.104.55 4.207 2.405 6.787 3.653.294.141.104.553-.18.447-.336-.125-.697-.258-1.181-.505-1.932-.936-3.4-2.316-5.921-3.173a.272.272 0 0 1 .163-.518zM25.92 80.015c.418.115.246.753-.181.633-2.354-.662-3.94-2.01-6.019-3.344-.136-.088-.015-.295.128-.221 1.959 1.012 3.553 2.238 6.071 2.932zM6.915 102.53C5.3 102 4.188 100.98 3.54 99.742c-.66-1.248-.908-2.973-.49-4.522 1.665-6.269 10.271-9.255 15.511-8.33.614.108.586 1.001-.034 1.07-1.394.158-4.38-.196-8.019 1.28-3.23 1.308-6.431 4.138-6.598 7.605v-.011c.016.54.004.368.038.695a5.119 5.119 0 0 0 1.382 3.02c.731.782 1.52 1.143 1.86 1.31a.363.363 0 0 1-.276.671zM93.35 75.5c1.787 7.05 3.309 17.872 8.785 31.352a.561.561 0 0 1-1.039.42c-3.182-7.83-4.738-14.05-6.335-21.499-.585-2.892-1.196-5.883-1.653-8.795-.138-.884-.206-1.391-.206-1.391a.228.228 0 0 1 .448-.087zM65.068 85.448l.13.288c2.932 6.816 5.586 15.53 11.228 25.324a.58.58 0 1 1-.996.588c-.367-.636-2.763-4.6-5.138-10.305-1.592-3.716-4.17-10.752-5.578-15.43l-.086-.306a.234.234 0 0 1 .44-.16zM66.241 95.063c2.512 4.705 3.176 8.012 5.834 13.172.08.158-.145.279-.232.132-2.615-4.427-3.346-7.355-6.073-13.067-.147-.307.31-.539.471-.237zM96.434 82.008c1.484 6.305 2.738 9.771 5.259 15.844.166.398-.417.65-.598.27-2.419-5.084-4.046-10.535-5.159-16.006a.254.254 0 0 1 .498-.108zM87.968 71.583l-.002-.083h.893c.01.39.034.787.057 1.19.043.835.09 1.64-.02 2.504-.097.758-.295 1.286-.295 1.286a.554.554 0 0 1-1.048-.36c.066-.192.363-.833.41-2.211.027-.979-.013-1.622.003-2.409h.893l-.002.083a.444.444 0 0 1-.889 0zM51.794 26.187l-.353.182c-2.846 1.519-3.853 5.664-3.665 7.41.008.313.096.705.166 1.01.257 1.022.848 1.97 1.676 2.604.809.65 1.666.856 2.682.9 0 0-.16.011.105-.012l.41-.035s.072-.02.466-.11l.336-.12c.056-.02.113-.038.168-.06l.163-.08.326-.156c.206-.131.421-.244.617-.39 1.525-1.093 2.605-2.79 3.079-4.57.346-1.226.428-3.112-.03-4.376-.304-.85-.801-1.508-1.33-2.227-.159-.215-.205-.269-.223-.332a.626.626 0 0 1 .875-.736c.066.032.102.077.292.276.685.73 1.39 1.424 1.799 2.494.328.854.409 1.726.43 2.605l.003.118c-.002.076 0 .007-.017.403-.051.753.042.106-.152 1.432a9.923 9.923 0 0 1-1.504 3.641 9.265 9.265 0 0 1-2.404 2.448c-.24.172-.51.312-.767.465-.498.23-.361.167-.623.286-.066.026-.127.045-.661.222-.208.05-.624.128-.744.145l-.411.025c-.127.007-.08.005-.204.01l-.058-.003c-2.581-.068-4.624-1.779-5.318-4.193a7.582 7.582 0 0 1-.184-.82c-.031-.28-.077-.581-.073-.815-.083-1.273.354-2.972.91-4.21.579-1.285 1.195-2.029 1.903-2.74.475-.39.582-.534 1.54-.983.058-.022.07-.026.59-.175a.253.253 0 0 1 .185.467zM68.877 25.142c.402.227.752.48 1.134.885 1.465 1.533 2.127 4.032 2.302 6.142.025.299.04.596.048.894l.001.11c-.003.316-.001.35-.01.452a5.664 5.664 0 0 1-.315 1.61c-.748 2.188-2.978 3.52-5.296 3.917a7.504 7.504 0 0 1-.87.098c-.073.005-.15.005-.224.007l-.226-.003c-.068-.002-.125 0-.202-.006l-.242-.02a4.889 4.889 0 0 1-1.773-.52 4.964 4.964 0 0 1-1.425-1.122c-1.048-1.188-1.574-2.81-1.785-4.386-.109-.826-.108-1.431-.111-1.731.003-.175.006-.578.05-.983.125-1.371.572-2.739 1.329-3.88.25-.378.664-.966 1.077-1.145a.532.532 0 0 1 .73.604c-.007.033-.03.168-.156.387-.123.25-.682.946-1.054 2.24a9.64 9.64 0 0 0-.38 2.481c-.005.36-.005.238 0 .59.035 1.233.273 2.604.796 3.71.37.787.92 1.478 1.651 1.879a3.37 3.37 0 0 0 1.204.38l.15.019c.053.005.128.006.19.01l.169.006c.056 0 .112.001.17-.002.228-.007.464-.028.7-.064 1.843-.276 3.625-1.208 4.316-2.921.158-.38.251-.803.296-1.216.01-.072.011-.126.027-.43.002-.034 0 .021 0-.001l.001-.063c.004-.333-.001-.602-.012-.825-.068-1.471-.356-3.04-.962-4.354-.425-.95-.944-1.595-1.643-2.263l-.072-.066a.288.288 0 0 1-.017-.407c.167-.18.367-.05.434-.013z" fill="#292524" fill-rule="nonzero"/>
    </g>
</svg>
