<svg width="17" height="17" viewBox="0 0 17 17" xmlns="http://www.w3.org/2000/svg">
    <defs>
        <radialGradient cx="14.931%" cy="100.347%" fx="14.931%" fy="100.347%" r="127.775%" id="a">
            <stop stop-color="#FFB140" offset="0%"/>
            <stop stop-color="#FF5445" offset="25.59%"/>
            <stop stop-color="#FC2B82" offset="59.9%"/>
            <stop stop-color="#8E40B7" offset="100%"/>
        </radialGradient>
    </defs>
    <g fill="none" fill-rule="evenodd">
        <path d="M0 0h17v17H0z"/>
        <path d="M14.057 3.963a1.02 1.02 0 1 1-2.04 0 1.02 1.02 0 0 1 2.04 0zM8.5 11.333a2.833 2.833 0 1 1 0-5.666 2.833 2.833 0 0 1 0 5.666zm0-7.198a4.365 4.365 0 1 0 0 8.73 4.365 4.365 0 0 0 0-8.73zm0-2.603c2.27 0 2.538.008 3.435.05.828.037 1.279.175 1.578.292.397.154.68.338.977.636.298.297.482.58.636.977.117.3.255.75.293 1.578.04.897.05 1.166.05 3.435 0 2.27-.01 2.539-.05 3.435-.038.829-.176 1.279-.293 1.578-.154.397-.338.68-.636.978-.297.297-.58.481-.977.636-.3.116-.75.254-1.578.292-.897.041-1.165.05-3.435.05s-2.539-.009-3.435-.05c-.829-.038-1.279-.176-1.578-.292a2.634 2.634 0 0 1-.978-.636 2.633 2.633 0 0 1-.635-.978c-.117-.3-.255-.75-.293-1.578-.041-.896-.05-1.165-.05-3.435s.009-2.538.05-3.435c.038-.828.176-1.278.293-1.578.154-.397.338-.68.635-.977.298-.298.581-.482.978-.636.3-.116.75-.255 1.578-.293.897-.04 1.165-.05 3.435-.05zM8.5 0C6.192 0 5.902.01 4.995.051c-.904.041-1.522.185-2.063.395a4.165 4.165 0 0 0-1.505.98 4.165 4.165 0 0 0-.98 1.506c-.21.54-.355 1.159-.396 2.063C.01 5.902 0 6.192 0 8.5s.01 2.598.051 3.505c.041.904.185 1.522.395 2.063.217.559.508 1.033.98 1.505.473.473.947.763 1.506.98.54.21 1.159.355 2.063.396.907.041 1.197.051 3.505.051s2.598-.01 3.505-.051c.904-.041 1.522-.185 2.063-.395a4.167 4.167 0 0 0 1.505-.98c.473-.473.763-.947.98-1.506.21-.54.355-1.159.396-2.063.041-.907.051-1.197.051-3.505s-.01-2.598-.051-3.505c-.041-.904-.185-1.522-.395-2.063a4.167 4.167 0 0 0-.98-1.505 4.167 4.167 0 0 0-1.506-.98c-.54-.21-1.159-.355-2.063-.396C11.098.01 10.808 0 8.5 0z" fill="url(#a)"/>
    </g>
</svg>
