<svg width="69" height="69" viewBox="0 0 69 69" xmlns="http://www.w3.org/2000/svg">
    <g fill-rule="nonzero" fill="none">
        <path d="M34.68 0c.982 0 1.934-.012 2.914.1 4.753.418 9.408 1.816 13.582 4.133 6.771 3.734 12.229 9.77 15.204 16.918a34.102 34.102 0 0 1 2.552 10.7c.098.86.058 1.746.067 2.61-.009.892.033 1.806-.07 2.692a34.116 34.116 0 0 1-5.884 16.774c-3.183 4.655-7.517 8.535-12.514 11.15-5.529 2.915-11.837 4.228-18.07 3.864a34.437 34.437 0 0 1-11.174-2.568c-5.556-2.302-10.45-6.096-14.12-10.857A34.189 34.189 0 0 1 .992 42.718C.481 40.625.15 38.474.063 36.32-.008 35.67 0 35.02 0 34.368c.002-.534-.007-1.063.052-1.595.292-6.616 2.604-13.135 6.493-18.489A34.76 34.76 0 0 1 18.267 4.038 34.179 34.179 0 0 1 31.483.098c1.077-.124 2.116-.093 3.196-.097z" fill="#2158D5"/>
        <path d="M32.896.752c1.244-.105 2.522-.056 3.766.023a33.502 33.502 0 0 1 12.16 3.09 33.976 33.976 0 0 1 10.783 8 33.538 33.538 0 0 1 7.147 12.475c.809 2.543 1.283 5.207 1.474 7.867.03 1.138.14 2.247.045 3.386-.19 6.915-2.617 13.703-6.79 19.21-4.529 6.019-11.092 10.452-18.383 12.347-2.35.628-4.765.983-7.194 1.085-1.191.007-2.393.047-3.58-.045a33.444 33.444 0 0 1-14.515-4.35c-6.293-3.602-11.417-9.278-14.29-15.947a33.457 33.457 0 0 1-2.712-11.76c-.089-1.244-.06-2.503.023-3.746a33.525 33.525 0 0 1 2.498-10.88 33.37 33.37 0 0 1 6-9.505c4.366-4.898 10.14-8.5 16.49-10.17 2.308-.612 4.691-.998 7.078-1.08z" fill="#FFF"/>
        <path d="M12.508 24.682c2.917 3.66 6.787 6.5 11.118 8.26 4.101 1.68 8.612 2.38 13.03 2.071 1.074-.046 2.126-.235 3.193-.351a33.182 33.182 0 0 0-4.773 4.33c-.16.175-.318.395-.525.516-.317.082-.673.042-1 .049-4.786-.004-9.573 0-14.36-.002-.326.003-.668-.018-.99.04-.536.126-.98.591-1.102 1.127-.04.191-.039.398-.04.594.008 1.753-.002 3.51.003 5.264-.013.792.68 1.49 1.472 1.481 1.555.008 3.111-.005 4.666.006.044.529.045 1.02.179 1.532.134.562.374 1.085.68 1.573 1.224-.53 2.068-1.449 2.881-2.473.319-.396.564-.803.942-1.149-.231.72-.69 1.39-1.128 2-1.56 2.098-3.852 3.66-6.322 4.482-.264.11-.403-.055-.605-.193-2.055-1.604-3.87-3.495-5.332-5.655a24.55 24.55 0 0 1-4.17-11.839c-.041-.98-.146-1.934-.046-2.917.11-2.918.79-5.823 1.919-8.514.06-.107.148-.411.31-.232z" fill="#2158D5"/>
        <path d="M36.842 1.823c1.168.093 2.33.23 3.483.438 6.137 1.101 11.929 4 16.48 8.265.848.753 1.608 1.586 2.362 2.43 1.332 1.543 2.558 3.199 3.57 4.97-.749 1.185-1.553 2.335-2.309 3.516-.764 1.123-1.483 2.28-2.274 3.386a25.484 25.484 0 0 0-6.527-9.207c-3.995-3.613-9.145-5.902-14.511-6.392-1.272-.145-2.571-.107-3.85-.088a25.057 25.057 0 0 0-7.814 1.675c-5.384 2.071-9.985 6.039-12.865 11.038a25.373 25.373 0 0 0-3.346 11.019c-.213 3.13.172 6.28 1.102 9.277 1.58 5.086 4.82 9.572 9.064 12.769a25.032 25.032 0 0 0 12.086 4.858c2.472.315 4.966.244 7.422-.166a25.045 25.045 0 0 0 11.676-5.267 26.111 26.111 0 0 0 5.436-6.047c3.41-5.227 4.762-11.756 3.684-17.904-.054-.242.033-.4.16-.595 1.673-2.511 3.304-5.052 4.98-7.561.077.155.152.312.218.473 1.214 3.124 1.912 6.431 2.131 9.774.04 1.255.04 2.51.007 3.766-.329 6.271-2.5 12.424-6.228 17.48a32.808 32.808 0 0 1-9.721 8.867c-4.546 2.708-9.786 4.313-15.073 4.546-.566.07-1.125.052-1.694.056-.542-.005-1.058.015-1.595-.051-3.88-.165-7.74-1.075-11.307-2.605a32.706 32.706 0 0 1-11.18-7.953 32.576 32.576 0 0 1-7.108-12.314c-.78-2.442-1.231-5.002-1.424-7.555-.031-1.138-.152-2.244-.046-3.387.04-.63.031-1.257.119-1.883C2.609 23.93 6 16.713 11.345 11.39 16.43 6.235 23.26 2.866 30.446 2c.383-.037.764-.112 1.147-.155.618-.044 1.249-.016 1.866-.08 1.142-.1 2.246.038 3.383.058zm22.071 29.502c.706 5.13-.356 10.431-2.849 14.96-1.57 2.8-3.675 5.329-6.203 7.312-3.9 3.112-8.784 4.954-13.759 5.245-.976.032-1.953.03-2.93-.005a24.513 24.513 0 0 1-10.161-2.945c-.584-.344-1.234-.658-1.745-1.099 1.186-.494 2.324-1.057 3.357-1.83.198-.146.388-.31.6-.433.267.083.498.293.744.426.798.479 1.69.663 2.61.703.914-.04 1.814-.235 2.607-.706 1.372-.796 2.422-2.253 2.627-3.84.152-.915.014-1.885-.304-2.752-.223-.616-.596-1.139-1.024-1.628-1.103.707-1.793 1.896-2.348 3.05-.216.426-.333.904-.673 1.23.013-.152.036-.301.07-.447.406-1.662 1.247-3.094 2.284-4.436-.92-.759-2.146-1.15-3.331-1.154-.698-.01-1.32.25-2 .32.54-.41 1.25-.612 1.911-.708.755-.033 1.595-.087 2.32.15a5.86 5.86 0 0 1 1.56.7c1.22.764 2.059 2.045 2.367 3.443.09.394.105.799.166 1.2.395.039.788.031 1.184.03 2.941-.002 5.884.003 8.824-.002.755-.05 1.52-.046 2.216-.324.767-.301 1.371-.89 1.868-1.532.813-1.045 1.538-2.165 2.279-3.262l6.722-10.188c.333-.493.644-1.01 1.011-1.478zm-1.889-6.744c.152.251.254.538.357.812.055.164.133.387.052.553-.171.342-.42.65-.63.968-1.583 2.393-3.182 4.773-4.756 7.174-.85 1.268-1.69 2.634-2.694 3.784-.52.599-1.15 1.13-1.903 1.407-.792.28-1.707.305-2.539.295-2.994-.012-5.992.02-8.985-.016.446-.549.96-1.044 1.465-1.537a26.701 26.701 0 0 1 2.631-2.251 8.167 8.167 0 0 1 1.068-.702c1.528-.84 3.18-1.492 4.78-2.217 1.157-.493 2.276-1.061 3.384-1.654 2.93-1.615 5.56-3.766 7.519-6.498.06-.06.164-.252.251-.118zm6.311 8.444a1.5 1.5 0 0 0-1.114.878c-.215.548-.11 1.191.32 1.606.491.535 1.383.575 1.94.123.51-.407.725-1.136.438-1.739-.252-.61-.937-.977-1.584-.868zm-58.198.03c-.633.168-1.123.74-1.115 1.408-.037.776.686 1.506 1.463 1.475.823.047 1.573-.752 1.475-1.573-.033-.887-.975-1.552-1.823-1.31z" fill="#EE3232"/>
        <path d="M39.151 61.094c-.46.852-1.154 1.567-1.636 2.401.121.247.364.45.553.646.544.554 1.098 1.1 1.632 1.663-.384.09-.767.124-1.157.173-.666-.67-1.276-1.394-1.952-2.055-.006.747.16 1.473.135 2.222-.297.015-.595.03-.891.047-.073-.494-.103-.993-.16-1.488-.085-1.099-.245-2.195-.302-3.296.314-.02.629-.035.944-.047.117.658.079 1.322.213 1.977.54-.657.954-1.408 1.483-2.069.277-.204.81-.153 1.138-.174zm-5.128.898c.388.474.534 1.086.515 1.69-.011.632-.199 1.293-.609 1.783-.39.468-.987.722-1.593.72-.671.026-1.37-.167-1.848-.658-.497-.476-.679-1.254-.628-1.921.064-.634.215-1.257.662-1.734.36-.395.848-.585 1.37-.655.75-.08 1.643.166 2.13.775zm-8.311-1.956c.318-.003.606.115.903.218-.137.624-.341 1.231-.47 1.858.616.16 1.246.382 1.88.44.148-.597.31-1.193.491-1.78.303.047.597.12.892.2-.318 1.333-.694 2.652-1.027 3.98-.063.216-.103.486-.25.66-.284-.065-.562-.159-.843-.236.138-.695.363-1.365.5-2.061-.624-.127-1.229-.332-1.851-.462-.166.671-.366 1.336-.546 2.004a62.3 62.3 0 0 1-.919-.223c.264-1.11.59-2.205.872-3.311.122-.427.201-.876.368-1.287zm16.773.264c.046.223.096.447.143.67-.584.147-1.168.294-1.752.438.044.391.142.769.248 1.147.557-.093 1.093-.272 1.649-.37.056.228.112.457.162.687-.517.167-1.048.3-1.579.418.023.453.143.88.25 1.318.624-.1 1.238-.296 1.856-.437.063.245.105.488.134.74-.896.21-1.784.465-2.684.654-.234-.675-.367-1.386-.55-2.078-.199-.85-.447-1.693-.606-2.552.646-.177 1.3-.33 1.948-.501.257-.07.516-.109.78-.134zm2.271-.918c.298.645.518 1.33.777 1.992.191.53.426 1.048.583 1.59.16.46-.075 1.005-.47 1.269-.312.212-.692.281-1.052.369a14.77 14.77 0 0 1-.297-.739c.196-.063.409-.116.59-.216a.478.478 0 0 0 .249-.515c-.059-.303-.193-.596-.297-.887-.316-.84-.636-1.68-.934-2.528.283-.114.568-.223.851-.335zm-24.165-1.766c.326.093.633.282.931.44.625.348 1.274.652 1.892 1.012-.13.227-.24.518-.44.694-.262.19-.572.319-.857.471-.853.446-1.719.872-2.563 1.334.647.415 1.359.703 2.003 1.128-.104.202-.208.404-.311.608-.46-.173-.876-.42-1.309-.65-.541-.298-1.09-.58-1.638-.867.137-.272.242-.66.534-.799 1.09-.593 2.219-1.124 3.288-1.753-.606-.359-1.244-.657-1.859-1.002.104-.21.2-.42.329-.616zm27.685.418c.477.108.827.582.89 1.05.031.32-.186.643-.36.896.346-.008.676-.073.978.137.484.316.656.932.487 1.473-.172.422-.577.734-.967.946-.49.263-.983.522-1.49.754l-.746-1.404-1.473-2.82c.526-.279 1.047-.571 1.585-.828.326-.143.74-.297 1.096-.204zM18.051 55.78c.282.183.632.376.824.66-.093.511-.274 1.007-.4 1.512-.32 1.13-.593 2.274-.95 3.392-.291-.2-.575-.41-.846-.637.118-.366.226-.734.327-1.104-.527-.384-1.037-.789-1.566-1.167-.265.172-.523.354-.791.52-.093.052-.177.114-.286.06-.24-.142-.453-.344-.67-.52.962-.688 2-1.27 2.995-1.911.446-.272.885-.591 1.363-.805zm33.043-.058c.53.302 1.042.64 1.563.957.925.586 1.882 1.124 2.788 1.738a10.73 10.73 0 0 1-.847.638c-.309-.208-.615-.46-.959-.606-.216.094-.41.262-.599.404-.282.224-.585.424-.861.656-.096.07-.091.17-.069.275.077.31.186.614.28.92a26.17 26.17 0 0 1-.76.606c-.224-.599-.373-1.238-.551-1.856-.25-.874-.496-1.748-.751-2.62-.037-.15-.093-.31-.089-.464a3.64 3.64 0 0 1 .855-.648zm2.441-2.167c.914.874 1.794 1.782 2.694 2.67.098.097.196.14.308.034.398-.38.772-.787 1.17-1.166.181.164.357.334.53.51-.65.664-1.303 1.329-1.97 1.978a99.591 99.591 0 0 1-3.42-3.364c.225-.222.448-.458.688-.662zM13.55 51.489c.24.222.46.466.672.717l-.327.644-.683 1.274c-.269.513-.592 1.02-.792 1.564 1.19-.547 2.348-1.168 3.548-1.692.201.22.4.443.593.671-1.494.748-3.018 1.436-4.528 2.149-.285-.27-.553-.558-.82-.847.502-1.06 1.077-2.087 1.61-3.132.236-.45.453-.922.727-1.348zm43.86-2.686c.527.298.993.712 1.492 1.06.442.334.93.636 1.322 1.03.317.308.546.78.48 1.228-.088.553-.421 1.077-.802 1.476-.327.334-.704.592-1.192.572-.569.018-.98-.314-1.42-.62-.73-.538-1.474-1.056-2.193-1.606.184-.252.368-.505.558-.753.645.424 1.256.898 1.885 1.344.34.24.72.558 1.129.655.589.168 1.175-.49 1.127-1.047-.039-.388-.424-.724-.711-.955-.721-.55-1.479-1.06-2.192-1.62.09-.286.33-.535.516-.764zm-45.393.631c.498.275 1.06 1.084 1.154 1.64-.157.17-.4.267-.598.386-.204-.38-.358-.938-.746-1.167-.284-.191-.65-.066-.838.195-.132.555.226 1.142.193 1.734.047.976-1.136 1.595-1.964 1.157-.697-.375-1.083-1.152-1.37-1.855a9.63 9.63 0 0 1 .733-.396c.114.378.228.773.476 1.089.18.222.425.38.72.343.295-.005.48-.352.443-.618-.05-.449-.22-.862-.207-1.323-.135-.998 1.2-1.714 2.004-1.185zm1.614-38.066c.146.135.307.264.43.42.071.133-.034.22-.114.312-.366.373-.748.725-1.088 1.122.26.284.526.56.802.83.412-.391.807-.8 1.218-1.191l.525.493c-.377.422-.788.8-1.188 1.206.285.35.607.663.942.966.47-.39.856-.879 1.336-1.252.2.111.37.303.532.46-.691.709-1.38 1.431-2.13 2.079-.207.244-.322.56-.52.815-.422.555-.924 1.03-1.616 1.211-.588.175-1.168-.01-1.675-.314-.573-.36-1.086-.902-1.28-1.564-.177-.676-.025-1.369.35-1.95.245-.374.57-.805.984-1 .236-.039.47.303.64.437-.44.317-.926.666-1.08 1.216-.075.424-.075.913.178 1.283.442.695 1.355 1.172 2.165.842.618-.266.869-.798 1.153-1.365.182.032.365.063.548.09-1.012-1.078-2.096-2.087-3.109-3.163l1.326-1.328c.222-.22.445-.439.671-.655zm44.215 2.39c.23.278.45.565.66.86-.287.691-.572 1.384-.873 2.069a7.707 7.707 0 0 0 1.274-.113c.323-.038.69-.148 1.011-.09.226.204.41.479.587.724-1.007.191-2.037.265-3.05.416-.22.028-.398.13-.57.262-.396.301-.779.618-1.185.905-.175-.2-.37-.404-.502-.636-.053-.109-.007-.191.081-.26.383-.316.807-.584 1.18-.911.144-.127.205-.288.28-.46.329-.827.63-1.666.973-2.488.044-.094.088-.187.134-.279zm-3.053-2.867c.28.083.5.383.714.57-.394.518-.904.925-1.287 1.45.732.034 1.426-.108 2.15-.184.132 0 .326-.056.44.026.29.207.535.492.763.766-.979.075-1.955.182-2.933.252-.117 1.074-.151 2.159-.3 3.229-.297-.27-.584-.55-.868-.836.05-.934.255-1.834.237-2.775-.52.498-.984 1.049-1.495 1.555a8.714 8.714 0 0 1-.714-.666c.812-.845 1.64-1.674 2.444-2.527.278-.287.536-.611.85-.86zm5.656 4.054c.178.215.331.447.482.682a6.497 6.497 0 0 1-1.265-.129c-.156-.112-.283-.276-.411-.419.395-.087.788-.153 1.194-.134zM9.81 13.46c.116.358.242.72.312 1.09-.066.225-.251.425-.43.569-.387.06-.796.022-1.186.012.103-.144.202-.303.33-.427.242-.073.507-.087.758-.114a12.86 12.86 0 0 1-.148-.75c.121-.127.24-.255.364-.38zM16.508 9.2c.14.2.26.412.38.625-.398.183-.957.394-1.154.819-.176.293.087.833.458.775.528.002 1.056-.306 1.591-.302.4-.006.787.218 1.019.536.36.441.37 1.131.053 1.596-.416.606-1.023.982-1.705 1.226-.14-.23-.28-.458-.413-.692.442-.152 1.048-.341 1.29-.78.177-.286.148-.715-.2-.851-.654-.145-1.352.38-2.01.252-.552-.113-.954-.62-1.064-1.155-.09-.495.2-1.016.546-1.351.341-.312.758-.585 1.21-.698zm35.443-.256c.592.014 1.12.38 1.537.774.127.131.306.297.325.487-.128.186-.303.343-.459.506-.323-.354-.636-.772-1.126-.892-.37-.03-.722.272-.626.666.132.489.55.877.707 1.366.288.741-.292 1.615-1.044 1.756-.3.073-.651-.045-.926-.162-.506-.242-.984-.602-1.31-1.062-.064-.098-.058-.178.02-.266.137-.165.296-.315.446-.468.278.416.574.905 1.092 1.04.302.078.633.006.752-.312.092-.397-.198-.735-.382-1.059-.272-.436-.489-.87-.33-1.395.199-.528.731-1.013 1.324-.979zM20.753 6.526c-.145.97-.432 1.926-.518 2.903l1.939.736c.322.124.644.25.964.381-.277.26-.606.495-.96.635-.304-.053-.599-.205-.884-.321-.561-.233-1.126-.483-1.708-.663.319.653.73 1.25 1.057 1.896-.269.158-.54.315-.812.468-.355-.553-.669-1.135-1.001-1.704-.464-.815-.957-1.616-1.397-2.444.266-.167.535-.325.811-.474.348.583.65 1.184 1.041 1.74.159-.793.273-1.596.432-2.39.026-.35.517-.493.779-.645l.257-.118zm26.581-.489c.298.114.578.285.858.438-.028.626-.184 1.205-.286 1.823-.114.696-.285 1.388-.35 2.09.998-.864 1.886-1.843 2.888-2.7.26.14.518.29.77.45-.5.515-1.053.97-1.561 1.474-.52.515-1.08.984-1.595 1.504-.155.142-.318.336-.518.409-.365-.068-.703-.337-1.02-.519.055-.545.163-1.083.249-1.625.193-1.113.356-2.234.565-3.344zm-8.541-2.371c.593-.01 1.197.148 1.772.285.481.13.99.346 1.178.85.101.423.056.919-.258 1.246-.195.212-.482.292-.745.384.347.6.384 1.313.54 2 .4-.422.784-.86 1.164-1.303l1.132-1.332c.19-.221.381-.44.575-.658.092-.088.15-.177.294-.155.307.04.607.182.897.288.124 1.047.049 2.113.12 3.164.07.654.054 1.319.06 1.976a16.69 16.69 0 0 1-.954-.316 10.55 10.55 0 0 1-.064-1.193c-.6-.2-1.193-.478-1.81-.616-.306.212-.53.588-.782.864-.509-.171-1.034-.26-1.556-.378-.143-.602-.19-1.234-.371-1.825-.134-.365-.479-.34-.801-.39-.142.646-.224 1.314-.421 1.945-.293-.068-.587-.134-.877-.212.235-1.32.503-2.636.74-3.957.044-.23.08-.45.167-.667zm-13.027 1.94c.652.575 1.017 1.502.988 2.364-.024.607-.326 1.22-.827 1.575-.517.365-1.123.593-1.763.56-.726.006-1.351-.462-1.715-1.062-.44-.7-.675-1.642-.394-2.441.298-.813 1.056-1.244 1.858-1.44a2.054 2.054 0 0 1 1.853.445zm6.329-2.229c.274 1.563.537 3.133.769 4.703-.3.033-.6.076-.899.121-.225-1.272-.39-2.558-.664-3.82-.239 1.322-.39 2.667-.637 3.985-.253.153-.599.161-.883.227-.678-1.22-1.27-2.486-1.938-3.712.135 1.298.453 2.585.597 3.879-.256.117-.585.11-.861.14-.246-1.125-.387-2.274-.592-3.408-.071-.433-.158-.86-.175-1.3.493-.07.983-.163 1.477-.234.576 1.12 1.135 2.246 1.72 3.359.25-1.232.337-2.495.57-3.73.502-.105 1.002-.194 1.516-.21zm4.895.398c.592.469.826 1.203.826 1.937-.015.832-.29 1.642-.979 2.154-.847.563-2.017.52-2.84-.07-.47-.349-.722-.876-.825-1.441-.119-.726-.028-1.522.378-2.149.28-.442.741-.74 1.246-.86.762-.105 1.57-.08 2.194.429z" fill="#FFF"/>
        <path d="M33.326 62.591c.393.736.299 1.704-.176 2.38-.39.533-1.17.6-1.702.249-.322-.216-.507-.627-.561-1-.06-.616-.013-1.222.347-1.743.162-.251.418-.393.7-.474.51-.153 1.152.102 1.392.588zm15.35-2.04c.45-.014.832.452.662.89-.178.375-.64.571-.984.758a12.84 12.84 0 0 1-.676-1.238c.31-.155.655-.355.998-.41zm-.722-1.608c.318.132.401.513.256.802-.19.278-.566.437-.857.584-.19-.35-.373-.701-.538-1.063.36-.181.716-.434 1.14-.323zm-30.114-2.06a25.645 25.645 0 0 1-.584 1.93c-.384-.25-.75-.528-1.115-.804.535-.417 1.103-.8 1.7-1.125zm33.457.026c.579.29 1.103.694 1.642 1.051-.352.304-.724.578-1.11.836-.192-.617-.46-1.243-.532-1.887zM24.777 6.048c.379.208.635.599.802.987.184.472.296.96.121 1.454-.205.683-1.113 1.057-1.734.701-.429-.23-.708-.637-.88-1.083-.151-.405-.254-.846-.12-1.271.112-.408.454-.778.867-.883.298-.048.676-.067.944.095zM44.5 6.005c.01.69.01 1.381-.002 2.072a10.688 10.688 0 0 1-1.305-.459c.428-.543.854-1.09 1.307-1.613zm-8.178-1.658c.423.414.511.987.473 1.557-.022.43-.165.875-.435 1.215-.339.38-.893.428-1.36.305-.493-.175-.769-.664-.837-1.16a3.973 3.973 0 0 1 .024-1.071c.113-.46.366-.912.823-1.098.44-.088.967-.076 1.312.252zm3.252.186c.37.019.883.115 1.128.418.132.294.071.688-.222.868-.365.11-.804.044-1.166-.057.093-.408.152-.825.26-1.229z" fill="#EF4949"/>
        <path d="M44.84 12.396c.185.075.25.2.311.379.715 2.066 1.031 4.287 1.053 6.467.055.534.08 1.066.011 1.6-.114 4.011-2.031 7.904-5.101 10.477a14.419 14.419 0 0 1-5.492 2.913c-.383.103-.806.258-1.202.17a14.521 14.521 0 0 1-7.374-4.23 14.683 14.683 0 0 1-3.08-5.048c-.4-1.14-.657-2.34-.774-3.543-.061-1.147-.036-2.3.007-3.448.14-1.812.41-3.726 1.058-5.432.064-.193.21-.278.384-.36a24.686 24.686 0 0 1 7.597-2.06c.66-.014 1.309-.124 1.972-.106 3.654-.078 7.314.68 10.63 2.221zm-16.865.864c-.34-.496-1.193-.509-1.546-.027-.15.208-.157.44-.197.684.216-.003.462-.028.673.033.141.144.232.342.326.52-.227-.124-.47-.282-.723-.34-.38-.02-.754.29-.726.692-.037.497.23.862.618 1.135.216-.13.482-.365.749-.323.3.042.608.243.704.542.057.313-.05.673.047.974.13.194.324.33.508.469.006-.197.013-.394.023-.59l.29.029c-.029.223-.09.455-.079.68.062.299.307.477.52.672.032-.18.065-.358.103-.536l.21-.022c-.032.178-.082.362-.084.544.053.294.305.492.513.684.07-.269.028-.481.32-.598.024.347-.042.7.197.984.22.212.52.336.761.527-1.053.088-2.18.073-3.198-.24 0-.326.091-.716-.18-.964-.262-.286-.673-.33-1.024-.21-.213.083-.35.295-.493.464.22.196.427.398.622.618-.316-.169-.584-.346-.965-.303-.338-.014-.582.212-.753.478-.154.395-.046.747.184 1.083.195-.134.428-.368.67-.39.177.05.341.135.506.215-.334.072-.78.066-.956.417-.169.306-.013.631.215.854.285.265.69.403 1.078.364.213-.216.212-.612.531-.723.295-.147.544-.064.845-.003.004.219-.007.437-.022.656.244-.019.517.032.715-.142.21-.165.399-.351.634-.485-.059.228-.149.442-.247.655.254-.029.54.008.746-.168.196-.155.365-.341.562-.496-.079.216-.18.42-.283.626.268-.013.515.02.743-.15.237-.197.42-.443.678-.619.014.133.038.272.03.405-.09.155-.22.287-.333.427.334.01.612.077.87-.19.074-.084.137-.173.196-.263l.172-.27a1.47 1.47 0 0 1 .447-.472c-.14.421-.302.822-.337 1.27.504.052 1.108.042 1.476.454.235.217.115.645.106.93-.199-.345-.344-.672-.778-.757-.521-.056-1.057-.034-1.58-.017-.414.009-.905.341-.91.789-.033.627.01 1.26-.008 1.887-.013.143-.025.335-.192.376-.628.245-1.435.058-2.066-.114.023-.498.021-.956-.472-1.217-.442-.259-.975.013-1.127.473.161.197.354.372.534.554-.274-.136-.602-.357-.917-.292-.382.088-.756.47-.733.88-.013.271.123.465.234.7.168-.124.336-.285.529-.364.178-.019.373.088.542.14-.288.113-.732.173-.874.484-.152.406.116.828.458 1.037.248.16.526.135.81.157.105-.252.146-.607.432-.72.24-.095.653-.153.792.132.037.174-.035.364-.075.53.236-.011.484.029.682-.126.208-.16.39-.346.613-.487-.058.22-.133.434-.205.65.233-.03.44-.004.638-.153.198-.152.36-.346.551-.507a6.696 6.696 0 0 1-.255.59c.203-.022.447-.002.634-.09.275-.196.367-.5.722-.593.026.365-.108.483-.336.732.193.005.402.029.592-.009.327-.155.532-.53.556-.883.023-.268.054-.53.104-.793.164-.043.327-.084.491-.124-.082-.315-.215-.674-.136-1 .023-.137.049-.274.074-.411.112.368.214.718.435 1.04.328.493.763.86 1.146 1.302.155.192.359.463.337.723-.026.212-.193.414-.334.566-.357.361-.781.665-1.208.937-.186-.164-.362-.342-.592-.444-.39-.178-.904.017-1.074.411-.122.202-.001.47.037.687.291-.012.581-.02.872-.009-.353.133-.72.182-.89.565-.192.367-.021.773.276 1.02.213.184.483.202.748.262-.005-.203-.027-.428.017-.625.15-.121.345-.204.519-.289-.115.267-.448.643-.245.923.138.278.41.41.715.4.38.028.745-.1.985-.406.072-.228-.232-.457-.221-.699-.032-.282.214-.674.528-.637.203-.01.358.236.503.356.107-.144.236-.295.3-.465.02-.273-.007-.548.014-.822.132.174.24.36.345.552.108-.11.21-.22.295-.349.08-.284-.007-.631-.043-.92.133.178.255.363.377.548.119-.161.258-.323.32-.515 0-.266-.09-.533-.136-.795l.328-.004c.055.199.101.398.139.601.213-.329.53-.674.407-1.097-.086-.284-.236-.549-.404-.808l-.344-.515c-.17-.258-.325-.52-.418-.802-.051-.228-.1-.556.11-.718.08-.081.163-.153.247-.229.515.531 1.038 1.003 1.773 1.195.546.095 1.1.072 1.517-.338.328-.284.383-.654.567-1.018.126-.036.27-.016.4-.026-.085-.463-.26-.888-.27-1.367.18.205.333.42.476.652.257-.244.509-.446.502-.837.011-.373-.217-.569-.457-.808.548-.204 1.03-.508 1.327-1.027.33-.547.311-1.218.25-1.833-.158-.793-.722-1.244-1.362-1.663-.38.175-.757.356-1.138.527l.29.184c.288.186.565.383.746.688.205.337.198.729.162 1.11-.058.41-.344.644-.644.89a17.57 17.57 0 0 1-.045-.77c-.222.009-.449.031-.671.013-.15-.073-.287-.184-.423-.281-.28.342-.523.648-.597 1.102-.278-.223-.54-.412-.666-.763-.183-.58-.049-1.235.404-1.653.566-.543 1.496-.729 2.181-1.097.532-.284 1.019-.645 1.213-1.242.139-.4.08-.78.006-1.183.23-.023.529-.001.723-.138a.744.744 0 0 0 .235-.946c-.091-.213-.363-.322-.55-.44-.16.206-.323.41-.487.613.103-.258.216-.485.185-.774.003-.322-.292-.572-.575-.666-.27-.073-.572-.057-.85-.065-.085.484.186.773.308 1.205l-.122.055a4.52 4.52 0 0 0-.401-.745c-.254.26-.564.516-.75.83a.607.607 0 0 0-.056.498c.354.335.93.37 1.19.816.215.328.033.671-.159.956-.294.42-.935.573-1.387.767-.813.338-1.74.766-2.212 1.55-.314.51-.313 1.056-.262 1.633.06.494.28.963.648 1.3.281.268.612.403.962.556-.127.31-.32.608-.126.94.188.343.499.456.865.496.033.437-.107.96-.618 1.008-.474-.008-.943-.438-1.247-.77-1.084-1.217-1.726-2.889-2.086-4.459a2.726 2.726 0 0 1-.07-1.005c.183.05.36.116.54.181.079-.253.16-.48.099-.75-.074-.171-.193-.327-.298-.48l.132-.181c.157.148.306.303.457.458.063-.24.148-.526.059-.768-.09-.22-.215-.426-.31-.645.194.146.37.31.546.476.06-.244.146-.547.04-.787-.112-.248-.248-.479-.315-.746.204.124.394.265.587.404.033-.233.094-.508.033-.737-.097-.208-.273-.39-.341-.609-.025-.204-.02-.412-.032-.617-.153-.078-.314-.148-.458-.243-.096-.117-.156-.265-.227-.398-.759-.004-1.517-.008-2.276-.003-.318-.01-.535.186-.843.227-.303.041-.571.095-.833.26.134.142.277.272.425.4l.01.234c-.193-.057-.384-.12-.576-.176-.018.319-.049.65-.01.97.112.142.28.277.436.371.217-.098.408-.241.66-.27.226-.015.476.059.665.185.147.093.124.32.161.475-.18.058-.37.135-.561.147-.86-.111-1.509-.732-2.35-.894-.297-.056-.604.023-.774.287-.081.323-.075.663.144.932.276-.095.504-.292.778-.377.433-.097.818.008 1.23.139-.244.29-.44.514-.493.907-.374.1-.728.17-1.036.424-.34.277-.48.662-.716 1.02-.1-.579.16-.99.483-1.432-.907-.706-1.962-1.445-2.582-2.425l.189-.189c.188-.19.355-.392.37-.681-.035-.352-.238-.68-.592-.78-.234-.046-.494-.019-.73-.005.014.298.029.596.013.894-.08-.207-.136-.443-.26-.628zm12.118-.189c-.348.003-.774-.051-1.074.156-.237.149-.371.394-.42.665-.017.35.45.661.364 1.007-.089.42-.31.877-.28 1.333.05.53.35 1.035.786 1.34.123.087.258.059.388.008.276-.116.54-.262.807-.395-.33-.257-.663-.464-.798-.885-.118-.259-.01-.527.156-.734.2-.224.538-.344.809-.462-.057-.446.055-.882.004-1.323-.006-.181-.204-.312-.32-.433a8.8 8.8 0 0 0-.695 1.007c.072-.447.3-.817.273-1.284zm-6.632 3.197c.498.082.943.13 1.45.088-.07.142-.125.413-.284.478-.329.057-.695-.072-.982-.228-.137-.072-.137-.206-.184-.338zm2.058-2.624c-.092.2-.182.4-.272.6a6.882 6.882 0 0 1-.634-.304c-.078-.039-.08-.179-.108-.255.337-.026.676-.035 1.014-.041zm.206-2.377c-.227.158-.471.33-.637.555.027.216.172.422.264.616a1.18 1.18 0 0 1-.625.057c.006-.239.042-.489.007-.726-.232-.355-.633-.298-.995-.21.3.484.558.947.645 1.518.88.001 1.765.023 2.645-.006.109-.114.145-.301.2-.447.124-.405.352-.73.538-1.106-.326-.012-.64-.1-.917.126-.133.09-.149.25-.144.42l.01.202a.91.91 0 0 1-.008.184c-.18.155-.386.04-.58-.02l.315-.542a2.894 2.894 0 0 0-.718-.621z" fill="#EE3232"/>
    </g>
</svg>
