<svg width="200" height="207" viewBox="0 0 200 207" xmlns="http://www.w3.org/2000/svg">
    <defs>
        <linearGradient x1="60.799%" y1="51.773%" x2="39.201%" y2="48.227%" id="b">
            <stop stop-color="#FFF" offset="0%"/>
            <stop stop-color="#FFF" offset="100%"/>
        </linearGradient>
        <linearGradient x1="60.893%" y1="47.675%" x2="39.107%" y2="52.324%" id="c">
            <stop stop-color="#FFF" offset="0%"/>
            <stop stop-color="#FFF" offset="100%"/>
        </linearGradient>
        <radialGradient cx="50%" cy="50%" fx="50%" fy="50%" r="52.915%" gradientTransform="matrix(1 0 0 .8965 0 .052)" id="a">
            <stop stop-color="#FFBD12" offset="0%"/>
            <stop stop-color="#FFD976" offset="42.1%"/>
            <stop stop-color="#FFDA7D" offset="57.26%"/>
            <stop stop-color="#FFDE88" offset="68.07%"/>
            <stop stop-color="#FFE299" offset="76.81%"/>
            <stop stop-color="#FFE9AF" offset="84.3%"/>
            <stop stop-color="#FFF0CB" offset="90.92%"/>
            <stop stop-color="#FFF9EA" offset="96.77%"/>
            <stop stop-color="#FFF" offset="100%"/>
        </radialGradient>
    </defs>
    <g fill="none" fill-rule="evenodd">
        <text font-family="Inter-BlackItalic, Inter" font-size="33.408" font-style="italic" font-weight="800" letter-spacing="-1.584">
                    <tspan x="0" y="186.25" fill="#000">Začni hrát </tspan>
                    <tspan x="52.567" y="207.319" font-family="Caveat-Bold, Caveat" font-size="39.168" font-weight="bold" fill="#EE3232">hokejbal!</tspan>
                </text>
        <g fill-rule="nonzero">
            <path d="M158.794 20.228c-16.122-6.601-33.543-9.956-51.137-9.848-17.593-.109-35.015 3.246-51.136 9.848-3.983 1.722-6.531 5.46-6.524 9.57v39.305c.12 27.195 17.98 51.553 45.03 61.414a52.98 52.98 0 0 0 12.685 3.35 51.675 51.675 0 0 0 12.592-3.35c27.05-9.86 44.91-34.22 45.03-61.414V29.798c.004-4.114-2.55-7.852-6.54-9.57z" fill="#FFDA7B" stroke="#000" stroke-width="3.456"/>
            <path d="M90.354 109.382c-.438-.87-1.263-.979-1.937-.666-1.48-1.156-2.614-1.068-3.1-1.124.176-.427.177-.911-.123-1.332-1.24-1.741-1.383-2.17-2.16-2.378a11.49 11.49 0 0 0-.486-1.067c-.586-2.68-2.357-4.84-4.867-5.967-.494-.221-1.1-.187-1.588.042-1.951-.98-4.236-1.602-6.43-1.512a17.032 17.032 0 0 0-1.226-.065c-.744-.318-1.54-.149-2.317.3-5.939.325-11.018 7.555-6.897 15.42-.5.092-.958.431-1.171 1.09-1.263 3.904-5.88 13.048.902 14.558 3.463.771 5.75-2.133 7.195-5.518-.025 1.681.642 3.273 1.93 4.509.374.36.791.496 1.185.473 3.168 1.82 8.644 1.08 12.167-5.508.251-.057.492-.172.697-.35-.045.397-.037.38-.034.512-1.181.398-1.666 1.398-1.397 2.194.63 1.863 2.27 2.35 4.048 2.107.076.044.156.086.241.12 3.48 1.378 5.902-1.302 6.654-4.412.268-.523.491-1.076.664-1.647.973-3.21-.445-6.689-1.95-9.779zm-19.01-6.665c-.304-.949-.311-1.118-.353-1.328.306.437.453.696.59.928-.096.119-.177.252-.237.4z" fill="#EE3232"/>
            <path d="M144.652 33.302a3.01 3.01 0 0 0-.692-1.595c-1.114-5.345-5.255-11.001-8.924-15.009C118.216-1.676 89.195-.289 76.37 18.991c-7.1 6.765-10.363 16.156-9.261 25.022-.177.36-.287.78-.302 1.267a28.6 28.6 0 0 0 .424 5.868c-.933 6.856 3.377 13.107 8.605 17.307 5.588 4.49 13.688 7.859 16.373 15.048.576 1.54.528 3.113 1.555 4.478 2.958 3.932 11.534 3.77 16.606 3.566 3.19-.128 5.925-1.405 7.482-3.928 1.87 1.31 5.38-.581 4.344-3.1a5.97 5.97 0 0 1-.451-1.937c.406-2.3 4.422-4.347 5.815-5.349 2.981-2.144 5.53-4.736 7.707-7.716 1.814-1.304 3.49-2.791 4.901-4.703 6.744-9.142 5.897-20.859 4.485-31.512zM86.795 69.346c.122-.023.242-.055.36-.092.034.14.065.279.1.417l-.46-.325zm11.658 15.287c.102-.041.202-.089.3-.14.182.167.37.327.556.488l.048.121c-.466-.111-.73-.244-.904-.47z" fill="url(#a)"/>
            <path d="M166.047 102.044c.27-3.308-.571-6.676-2.69-9.415-.171-.222-.354-.43-.536-.638-.973-1.762-2.383-3.308-4.24-4.508-2.087-1.349-4.87-1.85-7.297-1.374a14.48 14.48 0 0 0-2.427.734c-.145-.424-.459-.658-.845-.846a1.84 1.84 0 0 0-.617-.4c-1.787-.712-3.527-.801-5.408-.468-.059.01-.11.03-.165.048-2.583.24-4.975 1.205-6.24 3.432-1.734 1.529-3.261 3.22-4.648 5.07l-.617.33a1.664 1.664 0 0 0-.985.127c-.95.414-2.423.853-2.696 1.024-1.312.57-2.338 1.382-2.39 3.29-.082 2.957 3.641 3.667 5.798 3.336 1.501-.23 3-.48 4.483-.776.249.454.756.848 1.353.879a79.5 79.5 0 0 1-3.58 8.214c-1.135.544-3.102 3.674-1.492 6.871-.58 2.933 3.89 4.19 6.094 4.397 4.99.468 8.778-2.344 11.459-6.142-.033.664.322 1.325 1.095 1.514 9.339 2.28 17.65-5.379 16.591-14.699z" fill="#EE3232"/>
            <path d="M120.903 70.667c-.82.447-1.664.583-2.437.478-2.272-1.648-2.248-3.127-3.049-3.726.016-.288.064-.587.148-.892.342-1.25-.945-1.957-1.97-1.52-1.298.555-2.59 1.124-3.886 1.681-.617.265-.875 1.293-.477 1.826.121.137.227.283.318.438a21.109 21.109 0 0 0 .1 3.796c-.06.176-.13.35-.201.526-1.601 1.106-3.24 1.977-5.118 2.537-3.038.906-4.436-1.04-4.545-3.907-.018-.494-.299-.864-.667-1.08.09-.566.144-1.14.158-1.726.025-1.075-1.17-1.473-1.933-.928-1.032-.746-2.851-.624-3.256.852-.153.556.024 1.153.134 1.697.184.909.01 1.852-.18 2.74-.262 1.217.424 2.017 1.38 2.49.298.487.804.808 1.344 1.09.044.181.128.365.274.54.863 1.035 1.884 1.892 2.957 2.7.554.416 1.363.487 1.965.133.056-.03.43-.102.757-.544.223-.3.454-.58.616-.919.055-.115.09-.228.114-.34 2.242-.204 4.505-1.206 6.403-2.413.149.06.308.104.478.127 1.495.201 2.677-.385 3.96-1.09 1.699-.934 3.698-.55 5.486-.168.618.132 1.204-.083 1.544-.63a7.515 7.515 0 0 1 1.275-1.569c1.19-1.115-.327-2.941-1.692-2.199z" fill-opacity=".301" fill="#FFF"/>
            <path d="M120.52 75.62c-.294-1.073-1.75-1.621-2.736-.524-1.28-.017-2.41.252-3.555.768l-2.088.575a1.43 1.43 0 0 0-.568-.13c-2.764-.067-4.996 1.534-5.896 1.946-.253.03-.402.128-.574.273-.127.06-.254.12-.381.183-.253.03-.505.07-.755.126-2.046.458-1.21 3.728.709 3.287 2.617-.102 5.29.117 7.847-.522 2.333-.583 4.348-2.18 6.259-3.559.074-.053.142-.111.205-.172.317-.066.622-.247.8-.494a1.548 1.548 0 0 0 .733-1.757z" fill="#F93"/>
            <path d="M125.02 61.241c-.014-1.237-1.317-1.913-2.37-1.363-2.04 1.066-5.181 2.084-6.21 4.067-.717-.016-1.433.439-1.334 1.301.036.315.183 1.398.191 1.454l.031-.009c.092.264.25.474.448.626 1.076 2.323 3.131 4.545 5.839 3.069 2.996-1.633 3.437-6.105 3.405-9.145zM109.46 69.21c-.086-1.024-.48-1.952-1.41-2.412-1.801-.893-2.553 1.235-7.44.824-1.25-.105-1.548 1.218-.995 2.039a1.42 1.42 0 0 0-.097.55c.097 3.273 1.24 5.766 4.508 5.697.732.092 1.44-.066 2.087-.386 2.598-.951 3.866-3.74 3.347-6.311z" fill="#FFF"/>
            <path d="M124.756 86.048c-2.751-1.424-6.59.145-9.467.576-8.217 1.23-16.611 1.234-24.863.375-.374-.039-.706.162-.957.422-.13.049-.249.116-.356.197a1.29 1.29 0 0 0-1.037 1.043c-.856 4.07 1.251 7.094 4.543 7.655-.025.526.152 2.308.274 3.205-1.228.466-2.142 1.504-2.452 2.92-.254 1.16.68 1.944 1.774 1.778.8-.12 1.6-.245 2.4-.367.534.324-1.52.352 28.853-1.631 2.035-.133 2.103-2.93.212-3.254-.864-.844-1.6-1.82-2.664-1.728-.173-2.23-.105-2.76-.697-3.375 1.709-.284 3.342-.817 4.656-1.923 1.574-1.326 1.821-4.837-.219-5.893zM121.029 109.91c-8.228.712-16.446 1.508-24.657 2.392-.696.075-1.247.52-1.263 1.267-.006.27.02.485.08.68-.103.38-.065.789.183 1.138 4.372 6.14 10.697 8.479 15.425 7.645.352.075.995-.034 1.345-.105.384.073.715.046 1.794-.575.835-.372 1.612-.882 2.111-1.526 2.158-1.338 3.708-3.458 4.537-5.896.203-.6.063-1.088-.248-1.43.494-.221.985-.457 1.47-.71 1.323-.686.755-3.012-.777-2.88z" fill="#8C8C8C"/>
            <path d="M148.735 33.24c.173-.394.12-.487.304-1.788 1.153-1.758.897-4.02-.02-5.86-.115-.298-.26-.584-.441-.855-.597-1.837-1.937-3.503-3.121-4.925-2.001-2.404-4.668-4.157-7.47-5.472-.466-.22-1.01-.257-1.52-.15-3.937-7.842-11.978-11.454-19.875-10.458-1.064-.275-2.046-.01-2.924.61-1.643.207-1.55.132-7.29-.593-1.369-1.692-3.338-2.578-5.666-2.574-2.801.004-6.147.652-8.421 2.348-.42.312-.685.748-.817 1.22a7.1 7.1 0 0 0-1.536 2.065c-2.03 1.343-4.353 1.94-6.711 2.46-.342-.044-.956-.177-1.569.342-2.77.61-8.357 1.758-10.773 7.34a17.594 17.594 0 0 0-1.568 2.689 1.958 1.958 0 0 0-.677.363 24.223 24.223 0 0 0-7.97 13.079 2.135 2.135 0 0 0-.025.867c-.571.556-.707 1.218-.553 1.823-1.724.85-3.742 6.914-.119 11.664.074.26.22.518.455.757 2.307 2.34 2.415 5.14 2.876 8.982.025 1.555.135 3.099.365 4.624-.29.36-.422.85-.25 1.426a28.973 28.973 0 0 0 2.803 6.459c.279.472.67.711 1.079.779 1.688 2.737 4.462 4.22 7.534 4.312 1.38.231 2.817.247 4.27.04 1.57-.224 1.393-2.643 0-3l-.156-.087c-.205-.518-.563-.682-.859-.852-.763-.438-1.413-.112-2.046.428a30.323 30.323 0 0 1-4.524-1.697 1.848 1.848 0 0 0-.393-.132c-1.126-.957-1.191-1.317-1.66-1.623-.746-1.124-1.308-2.469-1.88-3.73.094-8.814-.98-8.7-.355-15.949 4.37-1.812 2.06-.868 12.947-5.272 14.297-3.482 29.167-6.547 43.846-9.168 3.839-.223 5.507-.121 7.275-1.26l.943-.159c6.927-.156 7.02-.909 10.163-1.225.432.778.849.583 2.705 1.526-.114.301-.13.65.013 1.034l2.092 5.574c-.038.32.02.676.208 1.055 1.915 3.853 2.33 7.657 2.526 11.854-.754 1.84-2.018 3.402-3.608 4.808-.526.138-2.064 1.552-2.546 1.993-1.271 1.164.396 3.347 1.842 2.393 3.169-2.09 5.64-4.434 7.029-7.532a1.36 1.36 0 0 0 .388-.782c.13-.781.641-1.798.812-4.114.417-5.631-2.404-10.908-5.132-15.657zM134.504 100.919c-7.71.637-15.417 1.32-23.124 1.988-7.585.657-15.539 2.127-23.145 1.284-.465-.052-.806.18-1.005.517-.475-.324-.868-.188-1.59-.067-1.17.197-1.057 1.978 0 2.251 1.54.4 3.083.792 4.627 1.183.209.347.453.663.722.962.293 3.296 4.126 3.2 6.735 2.766 3.987.233 7.598-.35 11.524-.719 4.309-.404 8.61-.878 12.905-1.402 6.3-.244 8.933.45 11.05-2.538.76-1.071.868-2.722 2.05-3.45 1.184-.728.793-2.903-.749-2.775zM190.142 104.953c.016-.338-.086-.807-.197-1.142a51.98 51.98 0 0 1-.106-5.13c.031-.944-.9-1.51-1.745-1.332-5.321 1.118-10.525 1.878-15.978 1.773-.622-.012-1.018.32-1.2.753-.821.02-1.643.035-2.466.038-.512.002-.905.373-1.064.814a1.561 1.561 0 0 0-.692 1.556c.069.499.1 1.224.202 1.959-.06.727-.278 1.432-.675 2.157-.487.886.104 2.336 1.264 2.21 6.786-.735 13.59-1.208 20.412-1.364.517.46 1.285.593 1.826-.057l.317-.38c.462-.554.47-1.338.102-1.855zM56.8 104.087c-2.67.317-5.071-.167-7.388-1.548-4.217-2.515-6.363-1.209-12.526 1.1l-8.155 3.053c-.806.302-1.366 1.464-.561 2.13.23.192.425.33.615.43 1.609 4.01 5.725 6.904 9.35 8.957 1.78 1.007 3.822 1.758 5.882 1.576 3.025.384 7.545-.178 9.215-2.724.714.415 1.744.255 2.055-.803.479-1.627 1.95-2.669 2.593-4.22.85-2.051-.459-4.158.331-6.093.338-.828-.527-1.962-1.411-1.858zM33.053 75.249a4.604 4.604 0 0 0-1.26-1.459c.075-.38.026-.786-.172-1.096-2.478-3.876-5.644-7.109-9.394-9.574a14.957 14.957 0 0 0-5.231-2.779c-.485-.145-.925-.013-1.265.257-4.594-1.166-11.482-.302-13.328 4.628-1.116 2.98.472 5.617 2.045 8.076 1.17 1.829 2.286 4.442 4.035 5.988-.052.176-.11.35-.154.532-.206.853.386 1.789 1.558 1.693.337.246.774.362 1.216.252 14.388-3.588 8.595-2.506 21.041-4.278 1.002-.143 1.345-1.47.91-2.24z" fill="#444955"/>
            <path d="M56.326 103.901c-3.755.095-6.334-1.212-9.425-3.123a.89.89 0 0 0-.636-.134c.342-.704.09-1.72-.757-1.98a1.777 1.777 0 0 0-.21-.305 53.44 53.44 0 0 1-4.449-6.036c-2.223-4.96-2.837-5.597-5.092-10.27a1.151 1.151 0 0 0-.56-.56c-.266-.446-.537-.89-.81-1.331a46.442 46.442 0 0 0-.632-2.036c-.26-.772-.938-1.128-1.723-.98-6.188 1.157-12.373 2.338-18.568 3.456-.571.103-.877.543-.955 1.04-1.181.17-1 .116-1.399.197-1.208.246-1.098 2.107-.071 2.392.006.077.02.155.042.234-.15.34-.145.747.127 1.153a172.765 172.765 0 0 0 11.042 14.76c.936 1.84 1.823 3.942 3.12 5.466.904 1.064 2.431 1.577 3.581.496.113-.105.222-.216.333-.323 4.813-1.404 9.527-3.1 14.231-4.829.491.094 1.553.238 2.031.083a.976.976 0 0 0 .183 1.03c2.59 2.86 7.152 3.732 10.801 3.117.867-.147.649-1.538-.204-1.517zM188.675 96.818c-.776.077-1.501.364-2.256.554-.714.18-1.437.287-2.16.402a1.091 1.091 0 0 0-.841-.26c-.738.08-1.513.287-2.091.705-.62-.306-1.493.02-1.625.947-.444-.153-3.404.415-5.804.595-2.094.156-4.183.015-6.276.082-.822.026-1.069 1.326-.201 1.49 3.823.721 8.356.569 12.138-.372-.055 1.575.054 3.165.215 4.721.208 2.01 1.588 2.286 3.33 2.181 1.363-.081 2.654-.564 2.564-2.176-.115-2.079-.481-4.175-.745-6.248 1.434-.059 3.073-.316 4.194-.981.706-.418.462-1.73-.442-1.64zM116.29 27.077c-9.953 1.165-20.195 3.206-29.499 7.033-.963.396-.616 1.918.442 1.609 9.612-2.807 19.077-5.311 29.056-6.46 1.379-.158 1.392-2.345 0-2.182zM92.64 23.368l-.29.04S76.55 25.06 64.628 30.406c-.64.287-.586 1.035-.2 1.474-8.983 5.307-8.352 15.24-2.808 18.28.721.396 1.548-.588.9-1.17-2.738-2.459-3.526-5.78-2.349-9.254 1.303-3.847 5.127-6.261 8.7-7.656 6.261-2.445 11.09-1.77 24.058-6.57 1.067-.394 1.007-2.313-.29-2.143z" fill="#666D7D"/>
            <path d="M83.274 10.335c-7.29-1.617-11.682 3.715-13.972 9.867-.208-.456-.744-.77-1.24-.424-3.997 2.796-6.584 7.634-7.283 12.4-.14.955 1.259 1.398 1.479.41 1.023-4.596 3.316-7.954 6.613-11.15a34.096 34.096 0 0 0-1.427 6.713c-.09.85 1.233.978 1.449.197 1.024-3.702 1.69-7.43 3.643-10.795 2.065-3.557 5.981-6.131 10.171-5.154 1.34.312 1.909-1.766.567-2.064z" fill="#666D7D"/>
            <path d="M89.313 16.783c-.111-2.806-.22-5.611-.325-8.417-.045-1.211-1.792-1.3-2.003-.262a2.988 2.988 0 0 0-1.596 1.13c-.492-.235-1.166-.024-1.134.69.15 3.368-.55 6.34-1.037 9.624-.605 4.075 7.705 3.759 6.095-2.765zM135.108 12.763c-4.375-4.423-9.062-8.752-15.516-9.42-2.079-.216-4.675.123-5.754 2.14-.378.707-.297 1.582-.134 2.405-1.113-2.393-1.722-4.732-5.79-3.753a.936.936 0 0 0-.375.2c-.349.105-.617.43-.483.9.897 3.142 1.611 6.58 3.031 9.529.885 1.839 4.089 2.852 5.162-.016.287.944 1.679.502 1.514-.473-.257-1.522-2.263-7.523-.74-8.584 1.717-1.195 4.998-.17 6.739.413 4.324 1.45 7.679 5.048 10.799 8.21.993 1.007 2.541-.546 1.547-1.55z" fill="#666D7D"/>
            <path d="M105.781 3.738c-.4-1.952-2.206-3.303-4.18-2.8-.402.102-.62.367-.692.67-.739-.061-1.49-.07-2.243-.063-2.067.019-4.54.158-6.144 1.66-4.03 3.77-1.807 9.353-2.72 14.096-.183.953 1.237 1.368 1.464.405.899-3.812-.387-8.008 1.372-11.61 1.71-3.5 8.868-3.166 11.54-1.122.835.64 1.773-.41 1.603-1.236zM151.546 38.078c-.746-1.684-3.369-4.26-2.884-6.178a.968.968 0 0 0 .026-.351c3.564-6.49-6.016-19.01-18.56-16.612-.55.105-.794.481-.809.892-8.3.577-15.818 4.33-24.013 5.512-.81.117-.595 1.413.19 1.405 8.477-.084 16.257-4.529 24.723-4.905 6.318-.282 12.642 2.27 14.743 8.366.596 1.73-.066 3.468.389 5.125.164.6.636 1.149 1.228 1.316.038 2.065 2.574 4.82 3.61 7.009 1.881 3.97 2.354 8.495 1.779 12.818-.107.801 1.264.983 1.406.19.881-4.94.304-9.775-1.828-14.587zM68.08 70.805c-4.643-9.723-3.453-16.35-2.723-22.011.124-.955-1.36-1.077-1.618-.22-2.224 7.4-.5 16.303 3.077 22.972.451.842 1.666.103 1.264-.74zM32.631 75.642C26.48 59.772 3.832 56.318.421 66.387c-.385 1.136 1.206 1.64 1.817.768 3.838-5.482 10.93-4.782 16.545-2.635 5.47 2.092 9.815 6.553 12.427 11.723.394.782 1.742.227 1.421-.6zM135.213 100.838c-16.039 1.619-32.041 3.793-48.168 4.118-.954.02-.89 1.324 0 1.441 7.83 1.028 15.949-.242 23.748-1.023 8.14-.816 16.282-1.609 24.42-2.45 1.32-.137 1.335-2.22 0-2.086z" fill="#666D7D"/>
            <path d="M115.536 85.966c-7.969 1.336-9.61 2.036-19.764 1.389-1.002-.064-1.24 1.608-.238 1.768 6.578 1.053 14.172.942 20.574-1.076 1.346-.425.776-2.307-.572-2.081zM99.223 94.367c-3.106-.346-6.559.42-8.444-2.147-.87-1.186-.464-2.884 1.133-3.073 1.45-.171 1.503-2.198 0-2.301-3.62-.249-4.681 3.945-3.171 6.57.878 1.526 2.478 2.358 4.267 2.747-.403.127-.726.455-.675.947.092.882.215 1.755.285 2.639-1.114.42-1.918 1.456-1.906 2.884.006.632.219 1.075.717 1.458.55.422 1.393-.032 1.552-.634.121-.456-.085-.898-.033-1.225.132-.827.532-.923.666-1.298.332-.003.638-.188.706-.616.182-1.158.238-2.321.031-3.482a.84.84 0 0 0-.27-.495c1.887.229 3.865.044 5.367-.302 1.005-.231.664-1.573-.225-1.672zM125.74 91.007c.787-2.33-.396-4.971-2.534-6.223-.443-.26-1.064-.201-1.422.184l-.111.12c-.434.466-.464 1.196 0 1.658 1.07 1.068 1.382 2.36 1.088 3.605-8.234 3.26-9.076 2.621-15.105 3.716-.983.178-.67 1.594.223 1.653 3.751.25 7.936-.474 11.799-1.716-.835.716-.11 3.013.409 4.058.394.797 1.838.453 1.727-.469-.058-.485-.157-.963-.23-1.447-.08-.528-.002-1.1-.188-1.604-.17-.458-.628-.734-1.07-.75a41.41 41.41 0 0 0 1.233-.442c.185.481.69.815 1.202.423.5-.384.91-.823 1.24-1.298.447.12.969 0 1.264-.47.1-.159.19-.321.268-.486a.97.97 0 0 0 .206-.512zM120.395 110.31c-7.762 3.701-15.924 4.786-24.425 3.829-.944-.107-1.141 1.46-.223 1.653 8.642 1.812 17.927.406 25.835-3.444 1.368-.666.173-2.686-1.187-2.038z" fill="#AAA"/>
            <path d="M116.472 115.204c-1.998 2.358-1.383 4.6-5.359 5.837-3.776 1.176-7.573-1.153-10.82-2.757-.986-.487-1.78.865-.86 1.476 3.769 2.506 8.283 4.755 12.893 3.467a7.099 7.099 0 0 0 2.437-1.243c.308.147.68.155 1.043-.072 1.655-1.033 4.569-3.336 4.569-5.537 0-2.072-2.695-2.597-3.903-1.17zM120.703 100.79c-8.013-1.912-16.319-.133-24.072 2.134-1.087.318-.63 1.91.464 1.686 1.917-.395 3.83-.81 5.742-1.183.166.27.442.461.813.444 5.594-.272 11.15-.81 16.757-.888 1.238-.018 1.542-1.897.296-2.194z" fill="#AAA"/>
            <path d="M74.248 114.889c-5.27 1.47-12.341.181-13.024-6.353-.557-5.333 3.034-13.012 9.187-12.476 1.606.14 1.587-2.356 0-2.502-9.431-.87-13.345 12.428-11.04 18.153-.237.01-.475.097-.681.29-2.763 2.595-3.837 6.95-3.721 10.623.115 3.64 2.97 4.793 6.192 4.225 1.031-.181.705-1.677-.234-1.736-1.387-.088-3.038.082-3.585-1.582-.374-1.138-.09-2.774.106-3.916.41-2.384 1.652-4.184 2.865-6.184 2.987 4.168 9.56 5.139 14.423 3.232 1.076-.422.677-2.1-.488-1.774z" fill-opacity=".301" fill="#FFF"/>
            <path d="M90.667 109.366c-.512-1.052-1.984-.132-1.539.902 1.186 2.755 1.403 5.7.523 8.574-.749 2.444-3.732 4.957-6.017 2.652-.44-.443-1.01-.45-1.45-.205l.287-.357c.682-.863-.439-2.079-1.238-1.24-1.89 1.98-3.801 3.952-6.524 4.667-3.161.83-5.68-1.488-5.286-4.641.155-1.239-1.803-1.71-2.327-.633-2.217 4.562 1.085 9.722 6.216 9.468 1.024-.051 1.302-1.02.914-1.673 2.948-.388 5.4-2.583 7.344-4.853a1.26 1.26 0 0 0-.029.689c.307 1.3 1.08 2.266 2.392 2.607a1.076 1.076 0 0 0 1.24-.494c2.066.079 4.172-1.185 5.466-3.017 2.49-3.527 1.796-8.816.028-12.446zM138.697 96.6c.17-1.095-1.383-1.587-1.694-.468-.754 2.717-1.486 5.425-2.42 8.087-.99 2.827-2.41 5.504-3.19 8.4-.963 3.574.53 9.875 5.324 9.457 1.31-.114 1.592-1.86.31-2.298-5.047-1.721-3.49-6.814-1.95-10.699 1.592-4.019 2.954-8.195 3.62-12.479zM149.606 98.63c-.641-.859-2.075-.09-1.472.863 1.65 2.61 2.128 5.28 1.493 8.3-.247 1.177 1.487 1.675 1.807.5.889-3.268.194-6.952-1.828-9.663z" fill-opacity=".301" fill="#FFF"/>
            <path d="M156.428 102.67c-.866 2.618-3.487 4.13-5.174 6.177-1.874 2.276-1.466 5.296-3.186 7.602-.653.875.64 2.167 1.512 1.516 2.787-2.078 1.378-5.433 3.942-8.375 1.797-2.061 3.996-3.644 4.7-6.424.298-1.173-1.418-1.63-1.794-.496zM147.594 85.552c-2.545-.844-5.348-.783-7.902-.014-2.647.798-4.402 2.824-6.13 4.856-3.276 3.85-4.98 2.795-7.863 4.49-1.932 1.135-2.477 3.576-1.121 5.316.604.775 1.782-.216 1.323-1.024-1.67-2.94 3.797-3.625 5.438-4.317 5.055-2.134 5.483-9.948 15.654-7.12 1.416.394 1.976-1.731.601-2.187zM116.068 74.78c-1.522.283-2.986 1.04-4.176 2.097-.104-.404-.418-.743-.906-.705-2.294.176-4.482.973-6.512 2.029-1.052.547-.13 2.054.916 1.572 1.708-.788 3.469-1.214 5.29-1.585a8.153 8.153 0 0 0-1.01 1.728c-.425 1.006.899 1.865 1.5.88 1.297-2.122 3.031-3.459 5.405-4.174 1.191-.359.688-2.065-.507-1.843z" fill-opacity=".301" fill="#FFF"/>
            <g fill="#FFF" opacity=".37">
                <path d="M92.705 29.8c-.1 1.834-5.696 2.934-14.133 6.105-7.33 2.76-13.214 6.136-14.41 4.63-.59-.73.174-2.65 2.293-4.912 7.223-7.615 20.008-9.688 25.06-7.157.801.4 1.214.851 1.19 1.334z"/>
                <path d="M89.052 30.6c-1.372.837-4.428 1.558-7.114 2.31-4.81 1.325-7.769 2.075-8.189 1.096-.32-.755 1.229-1.933 1.92-2.358 4.194-2.813 11.07-3.618 13.321-2.656 1.003.422.962 1.07.062 1.607z"/>
            </g>
            <g fill="#FFF" opacity=".37">
                <path d="M99.292 10.414c-1.045 2.985-3.853 7.392-6.1 7.48-.833.023-1.513-.54-1.908-1.264-.626-1.11-.697-2.419-.527-3.677 1.164-7.208 10.64-9.255 8.535-2.539z"/>
                <path d="M98.47 8.75c-.045.935-.757 1.905-1.338 2.635-.76.943-2.075 2.248-3.196 1.775-1.798-.754-.162-4.892 2.607-5.687 1.327-.373 1.973.43 1.927 1.277z"/>
            </g>
            <g fill="#FFF" opacity=".37">
                <path d="M140.174 29.094c-1.256 1.25-4.123.01-14.482-3.113-1.38-.477-4.077-1.2-4.29-2.647-.14-.932.92-2.052 2.993-2.732 6.919-2.218 15.297 2.6 16.104 6.964.124.669.014 1.185-.325 1.528z"/>
                <path d="M137.944 28.053c-1.224.025-3.308-.942-4.566-1.485-2.926-1.28-4.61-2.283-4.405-3.287.377-1.795 6.382-1.03 9.251 2.303 1.3 1.534.77 2.46-.28 2.47z"/>
            </g>
            <g fill="#FFF" opacity=".37">
                <path d="M31.392 91.915c-2.964-5.52-2.744-10.903-.824-11.368 2.293-.56 5.885 6.07 7.037 8.209 1.287 2.38 2.349 4.601 2.95 6.419 2.436 7.36-5.158 4.177-9.163-3.26z"/>
                <path d="M34.527 93.719c-.766-1.245-1.347-2.596-1.56-3.696-.215-1.102-.096-1.93.465-2.174 1.756-.763 5.313 5.487 5.976 7.342 1.32 3.645-2.163 2.968-4.88-1.472z"/>
            </g>
            <g fill="#FFF" opacity=".37">
                <path d="M122.105 8.267c.388.547.685.837.642 1.139-.029.302-.382.616-.815 1.192-.59.767-.988 1.5-1.594 2.045-1.408 1.266-3.187.477-4.077-1.197-1.53-3.05.846-6.48 3.161-5.927 1.287.295 1.874 1.65 2.683 2.748z"/>
                <path d="M120.941 7.766c.307.733.089 1.314-.468 1.84-.816.742-2.104 1.017-2.747.088-.65-.897-.333-2.64.796-3.233 1.001-.531 2.017.332 2.42 1.305z"/>
            </g>
            <g transform="translate(107.508 34.862)">
                <ellipse fill="#292524" transform="rotate(-85.618 6.004 12.359)" cx="6.004" cy="12.359" rx="12.003" ry="5.104"/>
                <ellipse fill="#FFF" transform="rotate(-85.618 5.718 7.712)" cx="5.718" cy="7.712" rx="5.409" ry="2.3"/>
                <path d="M6.879 12.045c-.146 1.913.451 3.518 1.335 3.586.883.068 1.718-1.428 1.864-3.34.146-1.913-.452-3.519-1.335-3.587-.884-.068-1.718 1.428-1.864 3.34z" fill="url(#b)"/>
            </g>
            <g transform="translate(92.915 39.732)">
                <ellipse fill="#292524" transform="rotate(-5.739 5.215 10.35)" cx="5.215" cy="10.351" rx="4.242" ry="9.975"/>
                <ellipse fill="#FFF" transform="rotate(-5.739 4.305 6.59)" cx="4.305" cy="6.591" rx="1.912" ry="4.496"/>
                <path d="M5.888 9.957c.16 1.586.882 2.813 1.615 2.739.733-.074 1.198-1.42 1.039-3.006-.159-1.587-.882-2.813-1.615-2.74-.732.075-1.197 1.42-1.039 3.007z" fill="url(#c)"/>
            </g>
            <path d="M100.514 96.097c.013 0-.038 0 .028.001-4.781.436-6.882 1.59-10.549.08-1.154-.629-1.822-1.09-2.59-2.514-.162-.412-.53-1.096-.521-2.66.182-2.63 1.34-4.07 2.433-4.587 1.175-.526 1.81-.101 3.337-.172l-.566.665c-.18-1.187-.19-1.477-.6-2.916-.419-1.147-.43-1.202-.531-1.38-.933-1.753-1.107-2.11-2.495-3.625-1.063-1.19-3.142-2.72-4.692-3.718-7.151-4.72-14.843-7.631-17.392-19.476-.454-2.773-.697-4.468-.36-7.153.124-.986.746-1.22 1.173-.897.384.289.393.933.436 1.41.04.047.338 3.214.344 3.277.427 3.701.893 6.389 3.377 10.478 4.293 7.163 15.254 10.303 19.2 16.36 1.274 1.86 1.433 2.454 2.126 4.359.414 1.53.417 1.804.703 3.785-1.227.069-1.055.068-1.508.049-1.027-.08-1.494-.161-1.999.092-1.245.604-1.877 3.236-1.292 4.803.284 1.172 1.599 2.248 2.763 2.557.935.322 1.869.38 2.81.413 2.29.02 5.134-.32 6.482-.136.586.08.565.079 1.36.206.386.062.353.633-.037.65-.842.036-.768.035-1.44.05zM121.39 85.767a6.62 6.62 0 0 1-.28-1.432c-.2-3.149 1.774-5.329 4.26-7.3 6.728-5.373 16.525-8.917 19.485-24.985.11-.924.706-4.53.509-8.816-.136-3.659-.852-7.087-2.04-10.508a1.134 1.134 0 0 1 .687-1.466 1.13 1.13 0 0 1 1.444.712c3.147 9.386 2.413 20.03-.716 27.53-.51 1.158-1.947 4.858-5.808 8.92-6.97 7.36-15.687 9.314-16.942 14.781-.021.12-.023.13-.127.972l.001-.021c-.03.65.012 1.094.112 1.655a.274.274 0 0 1-.22.322c-.27.05-.322-.228-.365-.364z" fill="#292524"/>
            <path d="M64.967 47.975c5.48-2.449 20.393-7.165 35.962-10.535 22.36-4.793 40.638-6.533 44.752-6.531.903 0 1.038 1.33.114 1.494-4.504.793-34.84 2.107-73.398 13.744-7.218 2.122-7.424 2.532-7.557 2.111a.234.234 0 0 1 .127-.283zM143.351 61.073l.387-.08c.92-.201 1.344-.3 2.582-.839.06-.031 1.18-.57 1.852-1.079.833-.641.252-.13 1.445-1.188 1.223-1.293.697-.769 1.345-1.546 2.862-3.889 2.9-8.663 1.391-13.19-.752-2.489-2.357-5.425-3.995-8.594-.221-.426-.272-.83-.335-1.088-.085-.248-.02-.44-.01-.444-.296-.559.546-1.01.843-.45.01-.005.205.047.362.255.387.425.593.333 2.536 4.48 1.695 3.726 3.226 7.868 3.006 12.007-.036 1.687-.62 3.937-1.146 4.991-.95 2.07-1.676 2.98-3.15 4.476-2.16 1.85-3.8 2.778-6.902 3.361a.547.547 0 0 1-.21-1.072zM74.01 76.11c-8.376-.74-12.154-11.294-12.24-19.56-.031-3.084.423-5.374 1.239-7.708a.845.845 0 0 1 1.6.553c-1.333 3.947-1.411 7.72-.722 11.813 1.026 6.115 4.117 12.852 10.234 13.526.818.15 2.235.122 3.63-.271 1.092-.328 1.924-.74 2.993-1.513.393-.284.87.226.567.601-1.654 2.05-4.752 2.908-7.3 2.558z" fill="#292524"/>
            <path d="M76.473 71.454c-.695-.008-1.242.085-2.913-.44-2.255-.879-3.957-2.247-5.347-4.814-.855-1.646-1.057-2.845-1.199-4.105-.176-1.485.128-3.336.256-3.584.201-.379.624-.319.787-.067.152.234.058.444.038.807-.246 2.966.828 6.334 3.442 8.786.491.406.618.593 1.885 1.335.812.377 1.704.786 3.065.873.132.009.39.037.77.03.43-.003.442-.008.77-.024.46-.022.614.612.197.806-.319.149-1.088.354-1.751.397zM145.136 56.586c.748-.32 1.559-.655 2.518-1.562 1.388-1.4 1.967-3.121 2.02-5.087.082-5.679-3.602-10.474-3.305-10.027a.618.618 0 0 1 1.018-.703c3.133 4.408 5.77 13.618-.128 17.401-.918.556-1.107.607-1.75.872-.586.242-.957-.643-.373-.894zM103.971 21.277c14.388-4.03 22.384-7.207 31.98-7.575l.07.002 1.115.068c7.646.847 16.686 10.944 12.78 17.758a.852.852 0 0 1-1.166.315.857.857 0 0 1-.358-1.08 9.125 9.125 0 0 0 .685-2.656c.405-4.829-6.048-12.074-12.042-12.882-7.96-.644-19.784 3.495-32.915 6.63-.377.09-.523-.475-.149-.58zM93.712 23.625c-2.205.538-35.453 3.645-35.25 17.957.164 6.39 3.735 7.601 4.626 8.673.356.43.251.876-.041 1.12-.365.305-.79.142-1.258-.036-.564-.191-1.192-.69-1.62-1.06-2.014-1.744-2.942-3.995-3.408-6.458-.255-1.923-.178-3.31-.04-4.002 2.145-14.616 34.698-17.597 37.55-17.02a.342.342 0 0 1 .27.403c-.05.25-.275.293-.829.423zM89.549 22.09l-.167-2.199C88.338 7.87 85.922.391 102.346.011c1.378-.012 1.662-.05 2.085.131.706.289 1.192.893 1.613 1.524 2.496 3.826 4.706 14.95 4.849 16.362.034.386-.037.592-.031.636a.444.444 0 1 1-.882.088c.009.043-.128-.147-.238-.5-.033-.114-2.23-10.254-4.566-14.752-.246-.466-.878-1.576-1.372-1.76-.03-.056-3.704.028-6.078.352-10.937 1.502-6.94 8.323-7.601 19.992a.29.29 0 0 1-.576.006z" fill="#292524"/>
            <path d="m82.944 23.35-.105-1.865c-.013-.627-.033-1.371-.018-2.18.057-4.776.686-7.485.535-8.677-.06-.512-.152-.704-1.729-.71-.169-.001-.08-.001-.08-.001-4.656.3-9.98 3.831-12.496 13.384-.582 1.93-.89 5.46-1.12 6.605-.199.984-1.657.811-1.625-.189.09-2.781.96-7.753 2.853-11.773 1.078-2.282 2.144-3.706 3.332-5.016.448-.54 1.016-.977 1.535-1.46.275-.226.572-.427.859-.64 2.324-1.674 4.86-2.388 6.754-2.349 1.258.026 2.523.14 2.96 1.385.492 1.509-.395 3.45-.718 10.623-.034 1.198-.03.64-.012 2.832a.463.463 0 0 1-.925.032zM115.703 16.682a23.59 23.59 0 0 1-.58-1.567c-.732-2.12-2.931-9.818-2.89-10.295.177-2.038 4.201-2.462 6.426-2.595.859-.044.704-.038 1.98-.009 9.19.47 14.232 7.922 15.932 9.971.355.41.503.817.617 1.017.015.03.102.173.078.197a.501.501 0 0 0-.02.109c-.046.68-.012.834-.232.93-.374.162-1.445-.532-1.868-1.066-2.288-2.75-5.658-7.221-11.023-8.901-4.873-1.553-10.288-.173-10.48.425-.022.03.014-.026-.006-.046l-.016.138c.001-.028-.005.08.002-.058.003 0 .006 0 .01.002.907 3.907 1.762 6.97 2.401 9.925.007.031.383 1.774.37 1.72a.347.347 0 0 1-.264.411c-.303.066-.401-.226-.437-.308z" fill="#292524"/>
            <path d="m60.032 33.12.15-.746c.082-.497.422-1.577.552-1.989.477-1.483 1.24-2.938 1.881-4.115 2.072-3.4 3.822-5.43 6.728-8.22a.644.644 0 0 1 .912.021.648.648 0 0 1-.042.936c-1.973 1.82-4.172 4.026-5.79 6.459-1.36 1.901-2.677 4.622-3.099 6.287-.222.815-.06.103-.384 1.559a.464.464 0 0 1-.908-.193zM82.942 8.706c1.965-.974 3.939-1.904 6.46-2.842a.844.844 0 1 1 .578 1.586c-3.984 1.466-6.352 2.676-6.352 2.676a.786.786 0 0 1-1.049-.374.79.79 0 0 1 .363-1.046zM106.177 2.642c2.273.054 4.538.163 7.336.53a1 1 0 1 1-.262 1.984c-4.039-.556-7.13-.587-7.13-.587a.963.963 0 0 1-.928-.996.963.963 0 0 1 .984-.93zM86.608 35.418c6.879-2.402 22.853-6.335 29.693-8.011a.838.838 0 1 1 .38 1.633l-29.838 7.173c-.513.123-.724-.622-.235-.795zM87.854 65.715c.777.25 1.538.464 2.32.656 3.56.906 7.966 1.32 11.89.87 1.308-.211 2.377-.25 5.796-1.211 2.102-.572 5.276-1.766 9.879-4.211 2.193-1.251 4.205-2.481 6.244-4.059.223-.001.68-.048 1.03.263.295.243.441.554.567.917.242.749.331 1.768.376 2.553.034.596.034.934.038 1.241-.011.68 0 .898-.09 2.026-.182 2.032-.737 4.36-1.533 6.334-2.59 6.459-8.073 11.853-14.311 12.457-1.169.146-2.433-.006-3.368-.128-5.617-.996-10.594-4.558-13.268-8.741-.287-.45.308-.941.693-.575 2.24 2.134 4.451 4.086 7.265 5.438 12.215 6.051 20.11-4.022 22.16-12.017.425-1.683.613-3.228.63-4.444.015-.482.012-.311.013-.747-.008-.697-.044-1.533-.146-2.22-.03-.212-.117-.67-.196-.797a.3.3 0 0 0 .068.07c.05.04.21.135.372.122l.536-.184c-4.784 3.593-11.87 6.928-16.57 8.096-4.482 1.15-6.037 1.074-8.55 1.17-3.684.02-7.984-.722-12.028-2.354a.278.278 0 0 1 .183-.525z" fill="#292524"/>
            <path d="m99.594 68.23.035.264c.34 3.06-.098 7.22 4.398 7.333.034 0 .103.005.11.002 2.747-.125 4.562-1.772 5.02-3.644.452-1.928-.154-3.32-.378-5.225-.037-.308.41-.392.49-.093.493 1.876.704 2.54.816 3.625.359 3.644-2.424 6.02-5.498 6.245-5.946.25-5.37-4.886-5.632-8.437a.322.322 0 0 1 .639-.07zM115.503 64.394c.182 1.834.728 4.387 2.26 5.41.591.4.927.518 1.893.562-.056.002.143-.008.225-.013 1.13-.152 1.703-.486 2.704-.959.304-.144.488-.224.488-.224a.445.445 0 0 1 .526.687c-.348.436-.972.945-1.725 1.286-.963.44-1.853.581-2.918.408-.79-.207-1.106-.264-1.873-.858-.911-.702-1.393-1.76-1.739-2.656-.358-1.158-.514-1.878-.562-3.597a.362.362 0 0 1 .721-.046zM109.627 80.373l.137-.543c.035-.147.22-.711.603-1.417.46-.74.251-.404.577-.847.452-.639 1.45-1.545 2.815-2.235 1.072-.482 1.624-.673 2.927-.864 1.209-.188 2.758.003 3.688.35.594.222.246 1.056-.298.834-.843-.345-2.236-.551-3.308-.416-1.21.14-1.714.295-2.722.71-2.228 1.042-3.38 2.51-3.966 4.55a.235.235 0 0 1-.453-.122z" fill="#292524"/>
            <path d="M101.982 80.403c.174-.224 1.136-1.582 2.763-2.604 2.242-1.41 4.798-2.183 7.812-2.143a.513.513 0 0 1-.014 1.028c-2.986-.04-4.885.53-6.912 1.583-1.624.97-2.153 1.51-3.049 2.614-.316.39-.906-.08-.6-.478zM71.843 102.256c.633 2.205 3.448 4.77 4.966 7.113 1.236 1.948 1.25 2.643 1.355 3.618.033.354-.005.933-.26 1.785-.845 2.846-4.717 5.543-10.014 4.862-14.21-2.573-14.866-26.811 1.384-26.425 4.542.193 12.471 2.768 14.655 7.712.636 1.372.708 2.493.621 3.919a1.147 1.147 0 1 1-2.287-.137l.046-.795c-.004.135 0 .035-.002.063-.015-.266.014-1.06-.467-2.09-1.037-2.35-3.94-3.99-6.33-4.916-1.946-.757-4.962-1.537-7.061-1.452-1.235.05-.64.021-1.52.132-3.607.572-5.898 2.854-6.858 5.813-.61 1.773-.667 3.217-.715 4.505 0 0-.001-.054.004.072.05 1.121.062 2.9 1.313 5.547.914 1.956 2.608 3.926 4.468 4.931.246.165 1.18.592 1.466.665.9.272.345.156 1.483.376 3.754.528 7.893-1.07 8.174-4.495 0 .02.003-.077 0 .04-.083-.894.044-1.58-2.246-4.757-1.227-1.659-3.295-4.298-3.347-6.338l-.019-.514c-.024-.652.936-.74 1.032-.097.098.656.103.745.16.863z" fill="#292524"/>
            <path d="m58.863 111.946-.19.296c-2.094 3.134-3.453 7.424-2.84 11.194.189.797.482 1.498 1.103 2.026.566.498 1.284.605 1.532.668.952.07.544.089 1.573.02.056-.004.639-.1.844-.17 2.883-.837 4.32-3.219 4.577-6.223a1.51 1.51 0 0 1 .002.054c-.023-.683-.022-.677-.03-1.047a.865.865 0 0 1 .842-.886c.451-.01.83.332.879.774.011.107.102.947.107 1.115-.11 7.307-6.815 9.265-9.967 7.968-2.335-.82-3.213-3.018-3.235-5.537.006-4.006 1.553-7.644 3.901-10.872a.546.546 0 0 1 .764-.12.55.55 0 0 1 .138.74z" fill="#292524"/>
            <path d="M67.332 124.713c1.256 1.576 3.36 2.142 5.409 2.182h.012c-.012 0 .042 0-.023.001 5.83-.338 10.542-8.109 10.514-13.136-.044-2.562-1.055-5.676-3.275-6.893-1.84-1.007-4.137-.579-5.124.514a1.064 1.064 0 0 1-1.507.076 1.071 1.071 0 0 1-.037-1.55c3.106-3.15 10.285-2.495 11.77 5.708.274 1.603.24 2.886-.046 4.343-1.07 5.465-5.978 12.435-12.146 12.602-2.774.035-7.127-1.741-7.102-5.21a.425.425 0 0 1 .427-.423c.602.004.276.768 1.128 1.786z" fill="#292524"/>
            <path d="M81.838 122.939s.065.12.188.32c.856 1.246 2.39 1.758 3.909 1.772.128.001-.034.006.022 0 .875-.084.9-.08.974-.11 1.02-.275.516-.15 1.055-.358 3.248-1.512 4.954-6.854 4.159-10.32-.068-.258-.266-1.114-.682-1.937-1.204-2.48-3.591-4.479-5.388-4.25-.598.073-1.029.344-1.271.472-.222.129-.363.192-.362.192-.953.466-1.818-.786-1.047-1.517.674-.64 1.609-.98 2.46-1.066 2.432-.294 6.205 2.044 7.741 6.952.258 1.082.33 1.28.386 2.812.048 2.4-1.3 8.108-5.481 9.848-.745.265-.175.138-1.438.408-.205.041-1.03.08-1.14.074-2.14-.1-4.128-1.2-4.688-3.04a.33.33 0 0 1 .603-.252zM148.694 98.762l.326.619c5.037 9.905.753 21.965-8.606 23.268-.775.06-.808.064-1.397.106.42.016-6.82.403-9.54-5.11-.872-1.773-.68-3.103-.61-3.917.656-3.643 2.817-5.31 5.526-10.278 1.225-2.788 1.502-3.384 1.92-6.93.14-1.175 1.69-.953 1.633.07-.134 2.368-.095 1.578-.264 2.774-1.07 6.499-4.912 9.484-6.493 13.783-.321 1.454-.332 1.884.02 3.01.047.182.143.35.22.525.712 1.462 2.128 2.563 3.609 3.223 1.356.61 2.676.762 3.995.836 0 0-.331.009 1.156-.054 7.898-.858 11.68-10.816 8.788-19.145-.468-1.355-1.02-2.433-1.01-2.413a.408.408 0 0 1 .727-.366z" fill="#292524"/>
            <path d="m157.981 102.16-.289.374c-.882 1.161-3.171 3.856-3.942 4.591-1.5 1.493-3.272 2.787-3.328 2.813a.357.357 0 0 1-.538-.251c-.035-.216.123-.346.285-.533 2.616-2.99 2.274-2.607 6.126-6.229.698-.653.708-.656 1.261-1.159a.29.29 0 0 1 .41.02c.097.107.1.265.015.375z" fill="#292524"/>
            <path d="m144.53 87.916.626-.264c1.52-.628 3.128-1.15 4.742-1.484 2.084-.427 3.33-.433 4.483-.412.793.03 1.431.155 1.757.202 2.525.508 4.747 1.686 6.71 3.857 6.25 6.865 6.455 19.898-.74 26.011-4.944 4.277-11.802 3.49-13.576 2.386-.416-.26-.632-.391-.619-.428a.901.901 0 0 1 .628-1.688c.014-.04.235.002.659.014.917.006 2.078.526 4.434.447.525-.018 1.088-.012 1.663-.123.288-.05.593-.063.889-.142.638-.166 2.552-.574 4.569-2.117 1.179-.894 2.23-2.115 3.05-3.552 4.325-7.541 1.432-19.395-5.82-22.719-1.13-.509-2.374-.81-3.138-.87-.569-.06-.138-.039-1.04-.08-3.013-.106-6.107.728-8.936 1.806a.453.453 0 0 1-.589-.263.457.457 0 0 1 .249-.58z" fill="#292524"/>
            <path d="M128.604 102.649c-3.024-.09-5.347-1.762-5.499-4.8a.895.895 0 0 1 0-.058c.185-4.28 5.185-4.41 7.406-5.514.496-.243.485-.336 1.076-1.27 2.776-4.19 6.518-7.623 11.55-7.784.434-.02.365-.018.435-.017.96.03 1.736.14 2.796.532.821.314 1.772.77 3.436 1.927l.428.3c.42.296.522.875.228 1.296a.925.925 0 0 1-1.297.224c-.548-.384-1.022-.717-1.589-1.072-.944-.59-1.93-1.085-3.03-1.289a5.472 5.472 0 0 0-1.345-.082c-3.676.094-6.668 2.334-8.98 5.223-2.479 3.076-1.264 3.114-5.14 4.248-2.552.724-4.544 1.344-4.446 3.544.1 2.074 2.348 3.98 6.356 3.037 1.432-.347 3.21-1.079 3.915-1.3.358-.112.601.36.309.59-1.3 1.022-4.018 2.319-6.61 2.265zM95.426 87.465c21.071-1.426 22.138-2.273 22.189-1.331a.42.42 0 0 1-.357.437c-4.986.754-15.175 1.661-21.812 1.6-.45-.003-.467-.674-.02-.706zM107.349 95.19c4.865-.375 15.237-1.062 17.675-4.098.371-.538.37-.656.427-1.18v.028c-.103-1.952-1.24-3.453-2.417-3.93-.421-.206-1.036-.233-.98-.227a1.013 1.013 0 0 1 .218-2.015c.193.02 1.05.308 1.56.589 1.865.958 3.269 3.031 3.286 5.56-.071.93-.247 1.432-.835 2.197-2.014 2.359-6.928 3.151-10.026 3.524-2.888.357-6.188.412-8.877.41a.43.43 0 0 1-.031-.858zM91.733 96.343a.719.719 0 1 1 1.394-.208c-.027.584.247 3.943.28 4.321.038.45-.62.542-.71.105-.1-.488-.788-3.72-.964-4.218z" fill="#292524"/>
            <path d="M120.358 95.028a.835.835 0 1 1 1.601-.482c.358 1.191.418 2.287.43 3.46a.817.817 0 0 1-1.63.026c-.01-.439-.002-1.733-.401-3.004zM134.608 100.972c.621-.043.685.9.066.943l-48.634 3.539a.578.578 0 0 1-.084-1.157l48.652-3.325zM131.077 108.98c.62-.047.695.892.075.943l-38.158 3.123a.58.58 0 0 1-.094-1.155l38.177-2.91z" fill="#292524"/>
            <path d="M95.493 114.399c.01.11.003.016.003.016l.003.018c.136.735 1.298 1.024 2.062 1.206 1.748.428 4.031.59 5.66.557 4.09-.083 17.7-2.25 18.523-4.713.054-.121.056-.322.047-.454-.01-.044.042-.082.04-.082l.184-.139c.386-.29 1.002-.246 1.041-.048.203.684.134 1.227-.128 1.78-.587 1.234-2.062 1.974-3.327 2.494-1.484.607-3.246 1.052-5.137 1.422a74.062 74.062 0 0 1-5.941.894c-2.212.247-3.553.329-4.536.363-.47.015-.763.022-1.51-.02-1.55-.089-3.792-.344-5.268-.852-1.055-.372-2.411-1.093-2.461-2.213 0-.123 0-.08-.002-.184.065-.68.277-1.598.32-1.978.02-.193.302-.196.328-.004.07.517.05 1.279.1 1.937z" fill="#292524"/>
            <path d="M97.728 117.104c.49 1.994 7.533 6.332 11.61 6.067 1.388-.09 1.613-.173 2.62-.414 3.615-1.184 6.543-3.389 7.6-7.087.12-.418.026-.03.223-1.167.195-1.127 1.58-.822 1.51.09l-.03.374c-.488 5.532-5.79 9.304-10.35 9.82-1.471.152-2.232.173-3.815-.175-4.382-1.009-10.15-4.934-9.987-7.542.021-.345.513-.39.597-.055l.022.089zM190.016 96.6c1.383 10.524 1.208 8.604 1.35 10.943-1.944-.031-25.518 1.651-25.575 1.655-.754.054-.856-1.094-.073-1.157.057-.004 23.951-1.367 25.074-1.529l-.474.574c-.29-1.549-.12-.627-1.193-9.888l.536.42c-1.372.164-.056-.002-23.006 2.944a.58.58 0 0 1-.147-1.15s21.355-2.538 23.508-2.812zM91.793 100.771c-.899.824-1.019 2.396-.466 3.34a.887.887 0 0 1-.314 1.212c-.392.23-.94.146-1.227-.344-1.374-2.345.413-5.643 2.311-5.473a.433.433 0 0 1 .392.47c-.028.316-.286.32-.696.795zM122.947 96.687c.306.216.96.538 1.243.988.324.513-.195 1.143-.757.927-.394-.15-1.294-.632-1.56-.962-.348-.388-.261-.81 0-1.046.45-.407.895-.016 1.074.093zM57.868 104.32l-.115.039c-1.662.566-4.46.518-7.202-.726-15.004-6.575-15.934-42.562-37.85-43.127-.279-.008-.182-.008-.427.002-.714.03-1.534.04-2.698.277-2.314.44-4.551 1.511-6.088 3.266-.993 1.16-1.337 2.15-1.443 3.314-.022-.28 0-.044-.001-.09.003.016.008.044.011.053.009-.016.01-.035.002-.05 2.327 5.417 25.47 44.545 36.89 50.954 1.253.713 2.124.863 2.335.857.74.042 3.724.028 7.116-.766 2.894-.637 4.21-1.597 6.027-1.97.21-.034.349-.094.51-.01.584.308.816.871.731 1.402-.028.179-.17.261-.336.416-.335.286-.46.452-1.204.817-1.67.802-6.109 2.308-11.213 2.472-1.836.083-2.957.064-5.129-1.173C25.157 113.082.892 70.695.065 67.768c-.092-.354-.076-.314-.018-1.075.57-4.074 5.266-8.391 13.175-8.153 15.085.515 20.742 16.927 26.933 29.687 1.676 3.463 3.366 6.55 5.217 8.988 4.499 5.962 8.482 6.15 12.34 6.135a.497.497 0 0 1 .156.97z" fill="#292524"/>
            <path d="M26.764 107.174s1.244-.545 3.133-1.327c6.681-2.762 14.988-5.628 16.58-5.501.313.018.946.038.973.043a.363.363 0 0 1 .15.649 1.621 1.621 0 0 1-.227.129c-1.533.741.568.098-6.311 1.937-5.381 1.456-10.322 3.308-14.06 4.673a.323.323 0 0 1-.414-.194.327.327 0 0 1 .176-.409zM31.04 107.195s.182-.059.504-.14c4.983-1.261 7.118-2.263 11.281-2.893a.195.195 0 0 1 .222.164c.044.295-.187.16-2.006.617-3.104.751-7.918 2.68-9.81 3.021a.396.396 0 0 1-.19-.77zM9.364 81.668c7.518-2.615 15.131-4.279 19.805-4.81.289-.038 2.371-.298 2.74-.252.168.022.985.19 1.063.22a.43.43 0 0 1 .068.764 1.49 1.49 0 0 1-.268.117c-.172.055-.418.189-.736.29-.318.095-.715.101-1.166.162-7.856.823-15.576 2.775-21.315 4.161-.416.1-.593-.51-.19-.652zM13.078 78.42c6.206-1.87 9.37-2.801 13.876-3.066.65-.038.73.937.083 1.006-.488.052-1.497.139-3.21.454-3.112.528-7.643 1.97-10.528 2.515a.467.467 0 0 1-.546-.373.47.47 0 0 1 .325-.535z" fill="#292524"/>
        </g>
    </g>
</svg>
