<svg width="18" height="18" viewBox="0 0 18 18" xmlns="http://www.w3.org/2000/svg">
    <path d="M6.705.011c-.839.03-1.789.222-2.677.547-.267.097-.284.106-.422.234a5.87 5.87 0 0 1-.361.3c-.14.106-.213.174-.208.191.008.017-.011.04-.048.06a7.995 7.995 0 0 0-.303.194A5.918 5.918 0 0 0 .621 3.88a5.63 5.63 0 0 0-.618 2.476c-.042 1.407.35 2.707 1.263 4.183.748 1.208 2.006 2.353 3.347 3.045 1.733.894 3.568 1.11 5.393.634a6.841 6.841 0 0 0 1.916-.81c.124-.077.234-.133.242-.123l.12.152c.137.172.595.623 1.244 1.224.752.697 1.324 1.235 1.948 1.83.804.77 1.06 1.006 1.2 1.118l.245.194c.188.153.275.195.403.197.24.002.434-.11.52-.3.143-.315.156-.38.156-.737 0-.427-.061-.647-.244-.859-.082-.096-.54-.55-.994-.983-.545-.522-1.78-1.591-2.677-2.32a15.331 15.331 0 0 1-.716-.6c-.029-.035-.03-.043-.006-.062.046-.039.298-.392.44-.615.222-.35.583-1.1.738-1.536.292-.815.425-1.445.467-2.231.057-1.083-.117-2.098-.522-3.017-.564-1.278-1.612-2.478-2.877-3.291A10.27 10.27 0 0 0 9.642.476 8.827 8.827 0 0 0 7.943.073C7.692.043 6.939-.01 6.878.002a3.97 3.97 0 0 1-.173.01zm.839 1.347a7.534 7.534 0 0 1 3.122 1.066c.734.443 1.261.917 1.816 1.63.422.541.637.95.852 1.616.44 1.359.375 2.804-.184 4.068-.363.819-1.042 1.657-1.81 2.231a6.061 6.061 0 0 1-1.382.784c-.637.255-1.013.318-1.861.316-.455 0-.601-.007-.874-.044-1.405-.187-2.535-.634-3.58-1.414a7.693 7.693 0 0 1-1.592-1.628C1.206 8.78.744 7.339.79 6.067c.036-.94.282-1.74.76-2.472.4-.607.862-1.094 1.449-1.524.28-.206.334-.235.35-.196.007.023.028.02.128-.01a4.14 4.14 0 0 1 .647-.123c.078-.008.238-.043.355-.081a8.239 8.239 0 0 1 1.535-.305 10.668 10.668 0 0 1 1.53.002z" fill="#292524" fill-rule="nonzero"/>
</svg>
