<svg width="17" height="17" viewBox="0 0 17 17" xmlns="http://www.w3.org/2000/svg">
    <g fill="none" fill-rule="evenodd">
        <path d="M0 0h17v17H0z"/>
        <path d="M16.83 5.077s-.166-1.18-.676-1.7c-.646-.682-1.37-.685-1.703-.724-2.379-.174-5.947-.174-5.947-.174h-.008s-3.568 0-5.947.174c-.333.04-1.057.042-1.704.724-.51.52-.675 1.7-.675 1.7S0 6.462 0 7.847v1.3c0 1.385.17 2.77.17 2.77s.166 1.18.675 1.7c.647.682 1.497.66 1.875.732 1.36.131 5.78.172 5.78.172s3.572-.006 5.951-.179c.332-.04 1.057-.043 1.703-.725.51-.52.676-1.7.676-1.7s.17-1.385.17-2.77v-1.3c0-1.385-.17-2.77-.17-2.77zM6.745 10.72V5.91l4.592 2.413-4.592 2.397z" fill="#CE1312"/>
    </g>
</svg>
